<svg width="43" height="43" viewBox="0 0 43 43" fill="none" xmlns="http://www.w3.org/2000/svg">
<g opacity="0.1">
<rect width="43" height="43" rx="21.5" fill="white"/>
</g>
<path d="M17.4697 20.4697C17.1768 20.7626 17.1768 21.2374 17.4697 21.5303L22.2426 26.3033C22.5355 26.5962 23.0104 26.5962 23.3033 26.3033C23.5962 26.0104 23.5962 25.5355 23.3033 25.2426L19.0607 21L23.3033 16.7574C23.5962 16.4645 23.5962 15.9896 23.3033 15.6967C23.0104 15.4038 22.5355 15.4038 22.2426 15.6967L17.4697 20.4697ZM18 21.75H18.5V20.25H18V21.75Z" fill="url(#paint0_linear_80_963)"/>
<path d="M17.4697 20.4697C17.1768 20.7626 17.1768 21.2374 17.4697 21.5303L22.2426 26.3033C22.5355 26.5962 23.0104 26.5962 23.3033 26.3033C23.5962 26.0104 23.5962 25.5355 23.3033 25.2426L19.0607 21L23.3033 16.7574C23.5962 16.4645 23.5962 15.9896 23.3033 15.6967C23.0104 15.4038 22.5355 15.4038 22.2426 15.6967L17.4697 20.4697ZM18 21.75H18.5V20.25H18V21.75Z" fill="black" fill-opacity="0.2"/>
<defs>
<linearGradient id="paint0_linear_80_963" x1="18.0382" y1="20.8955" x2="18.7552" y2="21.2476" gradientUnits="userSpaceOnUse">
<stop stop-color="#FAFEFE"/>
<stop offset="0.467406" stop-color="#E3F5F8"/>
<stop offset="1" stop-color="#F0F2FD"/>
</linearGradient>
</defs>
</svg>
