<svg width="22" height="20" viewBox="0 0 22 20" fill="none" xmlns="http://www.w3.org/2000/svg">
<path fill-rule="evenodd" clip-rule="evenodd" d="M8.55556 20H13.4444C16.8776 20 18.5942 20 19.8273 19.1829C20.361 18.8291 20.8194 18.3746 21.1761 17.8452C22 16.6223 22 14.9199 22 11.5151C22 8.11044 22 6.40801 21.1761 5.18511C20.8194 4.65571 20.361 4.20115 19.8273 3.84742C19.0348 3.32237 18.043 3.1347 16.5242 3.06762C15.7994 3.06762 15.1755 2.52298 15.0334 1.81818C14.8201 0.760989 13.8841 0 12.7971 0H9.20293C8.11585 0 7.17986 0.760989 6.96666 1.81818C6.82453 2.52298 6.20054 3.06762 5.4758 3.06762C3.95706 3.1347 2.9651 3.32237 2.17276 3.84742C1.63894 4.20115 1.18061 4.65571 0.823922 5.18511C1.78814e-07 6.40801 0 8.11044 0 11.5151C0 14.9199 1.78814e-07 16.6223 0.823922 17.8452C1.18061 18.3746 1.63894 18.8291 2.17276 19.1829C3.40586 20 5.12242 20 8.55556 20ZM11 6.9697C8.46869 6.9697 6.41666 9.00478 6.41666 11.5151C6.41666 14.0256 8.46869 16.0606 11 16.0606C13.5313 16.0606 15.5834 14.0256 15.5834 11.5151C15.5834 9.00478 13.5313 6.9697 11 6.9697ZM11 8.78789C9.48123 8.78789 8.25 10.0089 8.25 11.5151C8.25 13.0213 9.48123 14.2424 11 14.2424C12.5188 14.2424 13.75 13.0213 13.75 11.5151C13.75 10.0089 12.5188 8.78789 11 8.78789ZM16.1944 7.87878C16.1944 7.37671 16.6048 6.9697 17.1112 6.9697H18.3334C18.8396 6.9697 19.25 7.37671 19.25 7.87878C19.25 8.38089 18.8396 8.78789 18.3334 8.78789H17.1112C16.6048 8.78789 16.1944 8.38089 16.1944 7.87878Z" fill="url(#paint0_linear_81_797)"/>
<defs>
<linearGradient id="paint0_linear_81_797" x1="0" y1="10" x2="22" y2="10" gradientUnits="userSpaceOnUse">
<stop stop-color="#48C9B0"/>
<stop offset="1" stop-color="#3AADA3"/>
</linearGradient>
</defs>
</svg>
