<svg width="62" height="60" viewBox="0 0 62 60" fill="none" xmlns="http://www.w3.org/2000/svg">
<g filter="url(#filter0_d_25_290)">
<path fill-rule="evenodd" clip-rule="evenodd" d="M28.5556 36H33.4444C36.8776 36 38.5942 36 39.8273 35.1829C40.361 34.8291 40.8194 34.3746 41.1761 33.8452C42 32.6223 42 30.9199 42 27.5151C42 24.1104 42 22.408 41.1761 21.1851C40.8194 20.6557 40.361 20.2012 39.8273 19.8474C39.0348 19.3224 38.043 19.1347 36.5242 19.0676C35.7994 19.0676 35.1755 18.523 35.0334 17.8182C34.8201 16.761 33.8841 16 32.7971 16H29.2029C28.1159 16 27.1799 16.761 26.9667 17.8182C26.8245 18.523 26.2005 19.0676 25.4758 19.0676C23.9571 19.1347 22.9651 19.3224 22.1728 19.8474C21.6389 20.2012 21.1806 20.6557 20.8239 21.1851C20 22.408 20 24.1104 20 27.5151C20 30.9199 20 32.6223 20.8239 33.8452C21.1806 34.3746 21.6389 34.8291 22.1728 35.1829C23.4059 36 25.1224 36 28.5556 36ZM31 22.9697C28.4687 22.9697 26.4167 25.0048 26.4167 27.5151C26.4167 30.0256 28.4687 32.0606 31 32.0606C33.5313 32.0606 35.5834 30.0256 35.5834 27.5151C35.5834 25.0048 33.5313 22.9697 31 22.9697ZM31 24.7879C29.4812 24.7879 28.25 26.0089 28.25 27.5151C28.25 29.0213 29.4812 30.2424 31 30.2424C32.5188 30.2424 33.75 29.0213 33.75 27.5151C33.75 26.0089 32.5188 24.7879 31 24.7879ZM36.1944 23.8788C36.1944 23.3767 36.6048 22.9697 37.1112 22.9697H38.3334C38.8396 22.9697 39.25 23.3767 39.25 23.8788C39.25 24.3809 38.8396 24.7879 38.3334 24.7879H37.1112C36.6048 24.7879 36.1944 24.3809 36.1944 23.8788Z" fill="url(#paint0_linear_25_290)"/>
</g>
<defs>
<filter id="filter0_d_25_290" x="0" y="0" width="62" height="60" filterUnits="userSpaceOnUse" color-interpolation-filters="sRGB">
<feFlood flood-opacity="0" result="BackgroundImageFix"/>
<feColorMatrix in="SourceAlpha" type="matrix" values="0 0 0 0 0 0 0 0 0 0 0 0 0 0 0 0 0 0 127 0" result="hardAlpha"/>
<feOffset dy="4"/>
<feGaussianBlur stdDeviation="10"/>
<feComposite in2="hardAlpha" operator="out"/>
<feColorMatrix type="matrix" values="0 0 0 0 0.298039 0 0 0 0 0.85098 0 0 0 0 0.392157 0 0 0 0.2 0"/>
<feBlend mode="normal" in2="BackgroundImageFix" result="effect1_dropShadow_25_290"/>
<feBlend mode="normal" in="SourceGraphic" in2="effect1_dropShadow_25_290" result="shape"/>
</filter>
<linearGradient id="paint0_linear_25_290" x1="20" y1="26" x2="42" y2="26" gradientUnits="userSpaceOnUse">
<stop stop-color="#DDFC53"/>
<stop offset="1" stop-color="#7FDF76"/>
</linearGradient>
</defs>
</svg>
