<svg width="20" height="20" viewBox="0 0 20 20" fill="none" xmlns="http://www.w3.org/2000/svg">
<path d="M5.49963 9.49787C5.49963 7.22603 5.49963 6.09012 6.20258 5.38436C6.90552 4.67859 8.03689 4.67859 10.2996 4.67859H12.6996C14.9624 4.67859 16.0937 4.67859 16.7967 5.38436C17.4996 6.09012 17.4996 7.22604 17.4996 9.49787V13.514C17.4996 15.7858 17.4996 16.9217 16.7967 17.6275C16.0937 18.3332 14.9624 18.3332 12.6996 18.3332H10.2996C8.03689 18.3332 6.90552 18.3332 6.20258 17.6275C5.49963 16.9217 5.49963 15.7858 5.49963 13.514V9.49787Z" fill="url(#paint0_linear_33_1151)"/>
<path opacity="0.5" d="M3.47631 2.64293C2.5 3.61925 2.5 5.19059 2.5 8.33329V9.99996C2.5 13.1426 2.5 14.714 3.47631 15.6903C3.99094 16.205 4.67092 16.4483 5.65921 16.5634C5.49967 15.8627 5.49967 14.8996 5.49967 13.5139V9.49779C5.49967 7.22596 5.49968 6.09004 6.20262 5.38428C6.90556 4.67851 8.03693 4.67851 10.2997 4.67851H12.6997C14.0763 4.67851 15.0341 4.67851 15.7314 4.83741C15.6169 3.84284 15.3737 3.15958 14.857 2.64293C13.8807 1.66663 12.3093 1.66663 9.16667 1.66663C6.02397 1.66663 4.45262 1.66663 3.47631 2.64293Z" fill="url(#paint1_linear_33_1151)"/>
<defs>
<linearGradient id="paint0_linear_33_1151" x1="5.49963" y1="11.5059" x2="17.4996" y2="11.5059" gradientUnits="userSpaceOnUse">
<stop stop-color="#DDFC53"/>
<stop offset="1" stop-color="#7FDF76"/>
</linearGradient>
<linearGradient id="paint1_linear_33_1151" x1="2.5" y1="9.115" x2="15.7314" y2="9.115" gradientUnits="userSpaceOnUse">
<stop stop-color="#DDFC53"/>
<stop offset="1" stop-color="#7FDF76"/>
</linearGradient>
</defs>
</svg>
