<svg width="26" height="27" viewBox="0 0 26 27" fill="none" xmlns="http://www.w3.org/2000/svg">
<mask id="mask0_81_785" style="mask-type:alpha" maskUnits="userSpaceOnUse" x="0" y="0" width="26" height="27">
<circle cx="13" cy="13.5" r="13" fill="#D9D9D9"/>
</mask>
<g mask="url(#mask0_81_785)">
<path d="M27.5715 1.8692e-07H-1.57033C-2.91154 1.8692e-07 -3.99881 1.2536 -3.99881 2.8V25.2C-3.99881 26.7464 -2.91154 28 -1.57033 28H27.5715C28.9127 28 30 26.7464 30 25.2V2.8C30 1.2536 28.9127 1.8692e-07 27.5715 1.8692e-07Z" fill="black"/>
<path d="M29.9988 0H-4V28H29.9988V0Z" fill="url(#paint0_linear_81_785)"/>
<path d="M29.9988 0H12.19V28H29.9988V0Z" fill="url(#paint1_linear_81_785)"/>
<path d="M7.33294 0H-4V28H7.33294V0Z" fill="url(#paint2_linear_81_785)"/>
<path d="M18.6659 0H7.33294V28H18.6659V0Z" fill="url(#paint3_linear_81_785)"/>
</g>
<defs>
<linearGradient id="paint0_linear_81_785" x1="13" y1="0" x2="13" y2="28" gradientUnits="userSpaceOnUse">
<stop stop-color="white"/>
<stop offset="1" stop-color="#F0F0F0"/>
</linearGradient>
<linearGradient id="paint1_linear_81_785" x1="13" y1="0" x2="13" y2="28" gradientUnits="userSpaceOnUse">
<stop stop-color="#F44653"/>
<stop offset="1" stop-color="#EE2A39"/>
</linearGradient>
<linearGradient id="paint2_linear_81_785" x1="13" y1="0" x2="13" y2="28" gradientUnits="userSpaceOnUse">
<stop stop-color="#1035BB"/>
<stop offset="1" stop-color="#042396"/>
</linearGradient>
<linearGradient id="paint3_linear_81_785" x1="12.9994" y1="0" x2="12.9994" y2="28" gradientUnits="userSpaceOnUse">
<stop stop-color="white"/>
<stop offset="1" stop-color="#F0F0F0"/>
</linearGradient>
</defs>
</svg>
