<svg width="375" height="466" viewBox="0 0 375 466" fill="none" xmlns="http://www.w3.org/2000/svg">
<g filter="url(#filter0_if_81_995)">
<circle cx="135.406" cy="270.109" r="27.779" transform="rotate(-60 135.406 270.109)" fill="url(#paint0_linear_81_995)"/>
</g>
<g filter="url(#filter1_f_81_995)">
<circle cx="181.5" cy="241.5" r="41.5" fill="#8BE495"/>
</g>
<g opacity="0.5" filter="url(#filter2_i_81_995)">
<circle cx="250.037" cy="310.832" r="47.4454" transform="rotate(4.49826 250.037 310.832)" fill="url(#paint1_linear_81_995)"/>
</g>
<g filter="url(#filter3_d_81_995)">
<path fill-rule="evenodd" clip-rule="evenodd" d="M124.762 368.781C151 375.812 172.269 359.491 172.269 332.327C172.269 305.164 151 277.444 124.762 270.414C98.5238 263.384 77.2539 279.705 77.2539 306.868C77.2539 334.031 98.5238 361.751 124.762 368.781ZM118.823 287.267V320.553L138.378 346.037L146.776 339.593L130.7 318.642V290.449L118.823 287.267Z" fill="url(#paint2_linear_81_995)"/>
</g>
<path opacity="0.5" fill-rule="evenodd" clip-rule="evenodd" d="M120.076 374.153C146.076 381.12 167.153 364.947 167.153 338.03C167.153 311.113 146.076 283.646 120.076 276.679C94.0768 269.712 73 285.885 73 312.802C73 339.719 94.0768 367.187 120.076 374.153ZM114.192 293.379V326.363L133.569 351.616L141.891 345.23L125.961 324.469V296.532L114.192 293.379Z" fill="url(#paint3_linear_81_995)"/>
<g filter="url(#filter4_d_81_995)">
<path fill-rule="evenodd" clip-rule="evenodd" d="M168.997 195.594L243.82 215.967C246.301 216.643 248.412 218.273 249.69 220.499C250.968 222.726 251.307 225.366 250.634 227.84L235.398 283.795C234.725 286.268 233.093 288.372 230.863 289.644C228.633 290.915 225.987 291.25 223.506 290.574L206.718 286.003L184.705 298.592C184.151 298.91 183.539 299.116 182.905 299.198C182.271 299.28 181.626 299.235 181.009 299.067C180.391 298.899 179.813 298.611 179.308 298.219C178.803 297.827 178.38 297.339 178.064 296.784L165.472 274.773L148.683 270.202C146.203 269.526 144.091 267.896 142.814 265.67C141.536 263.443 141.196 260.803 141.87 258.329L157.105 202.374C157.779 199.9 159.41 197.797 161.64 196.525C163.87 195.254 166.517 194.919 168.997 195.594Z" fill="url(#paint4_linear_81_995)"/>
</g>
<path d="M169.669 230.217L170.563 226.934L169.117 220.424L170.691 220.853L171.651 225.742L174.945 222.011L176.506 222.436L171.96 227.314L171.066 230.597L169.669 230.217Z" fill="#1B1B26"/>
<path d="M176.143 232.145C175.517 231.974 174.991 231.684 174.567 231.275C174.144 230.857 173.852 230.359 173.691 229.783C173.54 229.2 173.556 228.575 173.738 227.908C173.919 227.241 174.226 226.7 174.657 226.285C175.09 225.861 175.594 225.581 176.168 225.443C176.744 225.297 177.341 225.308 177.959 225.476C178.586 225.647 179.11 225.941 179.533 226.359C179.958 226.769 180.245 227.265 180.396 227.848C180.557 228.424 180.547 229.046 180.365 229.713C180.184 230.38 179.876 230.925 179.442 231.349C179.02 231.766 178.52 232.048 177.944 232.194C177.37 232.332 176.77 232.315 176.143 232.145ZM176.475 230.927C176.814 231.019 177.144 231.026 177.465 230.948C177.797 230.864 178.089 230.691 178.343 230.429C178.598 230.159 178.79 229.789 178.918 229.319C179.046 228.849 179.067 228.436 178.982 228.083C178.898 227.72 178.734 227.423 178.488 227.191C178.253 226.952 177.966 226.787 177.627 226.695C177.289 226.602 176.954 226.598 176.622 226.682C176.3 226.76 176.012 226.934 175.757 227.205C175.504 227.466 175.313 227.832 175.185 228.302C175.057 228.773 175.034 229.189 175.118 229.551C175.203 229.905 175.363 230.201 175.598 230.44C175.844 230.672 176.137 230.834 176.475 230.927Z" fill="#1B1B26"/>
<path d="M182.225 233.801C181.523 233.61 181.025 233.217 180.732 232.623C180.442 232.02 180.425 231.245 180.684 230.296L181.676 226.653L183.072 227.034L182.119 230.535C181.956 231.133 181.947 231.617 182.092 231.987C182.247 232.351 182.536 232.591 182.96 232.706C183.451 232.84 183.883 232.769 184.258 232.495C184.633 232.22 184.909 231.758 185.086 231.108L185.98 227.825L187.376 228.206L185.644 234.566L184.248 234.186L184.517 233.199C184.233 233.507 183.893 233.718 183.499 233.831C183.115 233.938 182.691 233.928 182.225 233.801Z" fill="#1B1B26"/>
<path d="M189.877 235.719L192.391 226.486L193.788 226.866L192.73 230.752C193.039 230.45 193.408 230.248 193.837 230.144C194.267 230.031 194.715 230.039 195.181 230.165C195.934 230.37 196.46 230.775 196.759 231.38C197.069 231.979 197.095 232.753 196.836 233.702L195.845 237.344L194.461 236.967L195.414 233.466C195.742 232.261 195.424 231.526 194.459 231.264C193.96 231.128 193.497 231.19 193.072 231.451C192.646 231.711 192.345 232.167 192.168 232.816L191.274 236.099L189.877 235.719Z" fill="#1B1B26"/>
<path d="M198.738 238.297C198.247 238.163 197.851 237.964 197.551 237.698C197.261 237.426 197.067 237.121 196.968 236.782C196.878 236.445 196.88 236.106 196.973 235.764C197.157 235.088 197.54 234.633 198.122 234.396C198.705 234.16 199.39 234.149 200.177 234.363C200.533 234.46 200.838 234.575 201.092 234.709C201.358 234.836 201.575 234.955 201.745 235.066L201.825 234.771C201.96 234.275 201.925 233.871 201.719 233.557C201.522 233.247 201.204 233.031 200.763 232.911C200.433 232.821 200.123 232.81 199.831 232.878C199.54 232.946 199.314 233.141 199.153 233.465L197.808 233.098C197.982 232.659 198.238 232.32 198.575 232.081C198.913 231.843 199.298 231.7 199.729 231.652C200.169 231.606 200.617 231.646 201.074 231.77C201.988 232.019 202.628 232.441 202.993 233.036C203.367 233.634 203.443 234.339 203.222 235.151L202.768 236.818C202.68 237.143 202.633 237.383 202.627 237.537C202.63 237.694 202.667 237.806 202.74 237.871C202.824 237.931 202.942 237.982 203.095 238.023L203.158 238.04L202.83 239.246L202.525 239.163C202.094 239.045 201.755 238.884 201.511 238.68C201.267 238.476 201.142 238.166 201.137 237.752C200.847 238.013 200.5 238.203 200.095 238.322C199.69 238.441 199.237 238.433 198.738 238.297ZM199.317 237.27C199.8 237.401 200.227 237.334 200.6 237.068C200.972 236.802 201.246 236.45 201.42 236.01C201.247 235.908 201.041 235.797 200.801 235.677C200.561 235.556 200.31 235.46 200.048 235.389C199.599 235.267 199.235 235.269 198.955 235.394C198.676 235.52 198.494 235.737 198.41 236.045C198.338 236.31 198.38 236.556 198.537 236.782C198.693 237.008 198.953 237.171 199.317 237.27Z" fill="#1B1B26"/>
<path d="M204.259 239.635L203.642 232.635L205.103 233.032L205.464 238.517L208.543 233.969L210.003 234.367L205.923 240.088L204.259 239.635Z" fill="#1B1B26"/>
<path d="M211.181 241.685C210.555 241.514 210.038 241.227 209.63 240.822C209.233 240.411 208.962 239.919 208.818 239.347C208.682 238.777 208.703 238.163 208.883 237.505C209.062 236.847 209.356 236.302 209.764 235.872C210.174 235.432 210.659 235.137 211.219 234.987C211.778 234.836 212.375 234.847 213.01 235.02C213.628 235.188 214.127 235.475 214.507 235.882C214.898 236.282 215.158 236.748 215.286 237.279C215.414 237.81 215.401 238.357 215.248 238.921C215.224 239.007 215.199 239.101 215.171 239.204C215.145 239.298 215.108 239.402 215.058 239.517L210.183 238.19C210.056 238.789 210.123 239.294 210.384 239.705C210.653 240.118 211.025 240.389 211.499 240.518C211.863 240.617 212.195 240.616 212.496 240.514C212.805 240.414 213.058 240.235 213.256 239.977L214.665 240.361C214.33 240.922 213.854 241.334 213.237 241.597C212.62 241.861 211.935 241.89 211.181 241.685ZM212.695 236.174C212.247 236.052 211.817 236.077 211.406 236.25C210.996 236.423 210.682 236.755 210.467 237.248L213.945 238.195C214.05 237.709 213.985 237.283 213.748 236.915C213.512 236.548 213.161 236.301 212.695 236.174Z" fill="#1B1B26"/>
<path d="M214.949 242.546L216.681 236.185L218.078 236.565L217.802 237.578C218.103 237.274 218.463 237.069 218.883 236.963C219.314 236.851 219.762 236.858 220.227 236.985C220.998 237.195 221.532 237.602 221.831 238.207C222.133 238.803 222.154 239.576 221.896 240.525L220.904 244.167L219.507 243.787L220.461 240.286C220.789 239.08 220.466 238.345 219.493 238.08C219.002 237.946 218.548 238.011 218.131 238.274C217.714 238.537 217.417 238.993 217.24 239.643L216.346 242.926L214.949 242.546Z" fill="#1B1B26"/>
<path d="M223.272 238.434L224.81 235.588L226.309 235.996L224.25 238.7L223.272 238.434Z" fill="#1B1B26"/>
<path d="M227.032 245.835C226.634 245.727 226.312 245.589 226.067 245.421C225.83 245.256 225.68 245.022 225.617 244.72C225.554 244.418 225.591 244.015 225.728 243.511L226.636 240.176L225.557 239.882L225.881 238.69L226.961 238.984L227.404 237.355L228.801 237.735L228.357 239.364L230.046 239.824L229.721 241.016L228.033 240.557L227.177 243.699C227.11 243.946 227.081 244.136 227.09 244.267C227.111 244.392 227.176 244.488 227.285 244.554C227.403 244.623 227.58 244.69 227.817 244.754L228.579 244.962L228.251 246.167L227.032 245.835Z" fill="#1B1B26"/>
<path d="M159.014 243.387C158.617 243.278 158.295 243.14 158.05 242.972C157.813 242.807 157.663 242.573 157.6 242.271C157.537 241.969 157.574 241.566 157.711 241.062L158.619 237.727L157.54 237.434L157.864 236.241L158.944 236.535L159.387 234.906L160.784 235.286L160.34 236.915L162.029 237.375L161.704 238.568L160.015 238.108L159.16 241.25C159.092 241.498 159.064 241.687 159.073 241.818C159.094 241.943 159.159 242.039 159.268 242.106C159.385 242.174 159.563 242.241 159.8 242.306L160.562 242.513L160.233 243.718L159.014 243.387Z" fill="#1B1B26"/>
<path d="M160.745 243.858L162.477 237.497L163.874 237.877L163.605 238.865C163.846 238.581 164.113 238.383 164.407 238.271C164.713 238.152 165.039 238.139 165.386 238.234L166.262 238.472L165.916 239.742L164.9 239.465C164.46 239.346 164.072 239.437 163.735 239.74C163.408 240.037 163.14 240.57 162.931 241.34L162.142 244.238L160.745 243.858Z" fill="#1B1B26"/>
<path d="M166.902 245.699C166.411 245.566 166.015 245.366 165.715 245.101C165.425 244.829 165.231 244.524 165.132 244.185C165.042 243.848 165.044 243.508 165.137 243.166C165.321 242.491 165.704 242.035 166.287 241.799C166.869 241.563 167.554 241.552 168.341 241.766C168.697 241.863 169.002 241.978 169.256 242.112C169.522 242.239 169.739 242.358 169.909 242.468L169.99 242.173C170.125 241.678 170.089 241.273 169.884 240.96C169.686 240.649 169.368 240.434 168.928 240.314C168.597 240.224 168.287 240.213 167.996 240.281C167.704 240.348 167.478 240.544 167.318 240.867L165.972 240.501C166.146 240.062 166.402 239.723 166.74 239.484C167.077 239.245 167.462 239.102 167.893 239.054C168.333 239.009 168.781 239.048 169.238 239.173C170.152 239.422 170.792 239.844 171.157 240.439C171.531 241.037 171.607 241.742 171.386 242.554L170.932 244.221C170.844 244.546 170.797 244.786 170.791 244.94C170.794 245.097 170.832 245.208 170.905 245.274C170.988 245.334 171.107 245.384 171.259 245.426L171.322 245.443L170.994 246.648L170.689 246.565C170.258 246.448 169.92 246.287 169.675 246.083C169.431 245.878 169.306 245.569 169.301 245.154C169.011 245.415 168.664 245.605 168.259 245.725C167.854 245.844 167.401 245.835 166.902 245.699ZM167.482 244.673C167.964 244.804 168.392 244.737 168.764 244.471C169.136 244.205 169.41 243.852 169.584 243.413C169.412 243.311 169.206 243.2 168.966 243.079C168.726 242.959 168.474 242.863 168.212 242.791C167.763 242.669 167.399 242.671 167.12 242.797C166.84 242.923 166.658 243.14 166.574 243.448C166.502 243.713 166.544 243.958 166.701 244.185C166.857 244.411 167.118 244.574 167.482 244.673Z" fill="#1B1B26"/>
<path d="M171.471 246.778L173.202 240.417L174.599 240.798L174.323 241.811C174.624 241.507 174.984 241.302 175.404 241.196C175.835 241.084 176.283 241.091 176.749 241.217C177.519 241.427 178.053 241.835 178.352 242.439C178.654 243.036 178.675 243.808 178.417 244.757L177.425 248.399L176.029 248.019L176.982 244.518C177.31 243.313 176.987 242.577 176.014 242.312C175.523 242.179 175.069 242.243 174.652 242.506C174.235 242.769 173.938 243.226 173.761 243.875L172.867 247.158L171.471 246.778Z" fill="#1B1B26"/>
<path d="M180.713 249.46C179.909 249.241 179.296 248.872 178.874 248.353C178.451 247.834 178.295 247.222 178.405 246.517L179.84 246.908C179.811 247.249 179.906 247.55 180.126 247.812C180.348 248.066 180.662 248.248 181.068 248.358C181.466 248.466 181.793 248.468 182.049 248.363C182.313 248.261 182.478 248.09 182.543 247.851C182.594 247.662 182.562 247.498 182.446 247.356C182.33 247.214 182.099 247.059 181.754 246.892C181.614 246.836 181.452 246.764 181.267 246.677C181.084 246.581 180.924 246.501 180.787 246.436C180.481 246.288 180.205 246.103 179.956 245.879C179.717 245.658 179.542 245.399 179.431 245.102C179.324 244.798 179.322 244.453 179.427 244.068C179.578 243.512 179.912 243.103 180.429 242.84C180.949 242.568 181.59 242.536 182.351 242.743C183.096 242.946 183.655 243.282 184.027 243.75C184.402 244.211 184.533 244.783 184.419 245.469L183.047 245.095C183.097 244.778 183.024 244.515 182.826 244.305C182.637 244.097 182.378 243.949 182.048 243.859C181.701 243.764 181.406 243.762 181.163 243.852C180.92 243.942 180.77 244.094 180.712 244.308C180.605 244.701 180.845 245.037 181.432 245.317C181.552 245.377 181.714 245.453 181.916 245.545C182.118 245.637 182.288 245.715 182.425 245.78C182.709 245.903 182.985 246.061 183.251 246.253C183.525 246.447 183.73 246.695 183.866 246.999C184.004 247.293 184.014 247.654 183.898 248.082C183.73 248.697 183.36 249.138 182.788 249.405C182.226 249.665 181.534 249.684 180.713 249.46Z" fill="#1B1B26"/>
<path d="M184.069 250.208L186.583 240.975L187.979 241.355L185.465 250.589L184.069 250.208Z" fill="#1B1B26"/>
<path d="M188.353 251.54C187.862 251.406 187.466 251.207 187.166 250.941C186.876 250.67 186.682 250.364 186.583 250.025C186.493 249.688 186.495 249.349 186.588 249.007C186.772 248.332 187.155 247.876 187.738 247.64C188.32 247.403 189.005 247.392 189.792 247.607C190.148 247.703 190.453 247.819 190.707 247.952C190.973 248.08 191.19 248.199 191.36 248.309L191.44 248.014C191.576 247.518 191.54 247.114 191.334 246.801C191.137 246.49 190.819 246.274 190.378 246.155C190.048 246.065 189.738 246.054 189.447 246.121C189.155 246.189 188.929 246.385 188.769 246.708L187.423 246.342C187.597 245.902 187.853 245.563 188.191 245.325C188.528 245.086 188.913 244.943 189.344 244.895C189.784 244.849 190.232 244.889 190.689 245.013C191.603 245.262 192.243 245.684 192.608 246.28C192.982 246.877 193.058 247.582 192.837 248.394L192.383 250.062C192.295 250.386 192.248 250.626 192.242 250.781C192.245 250.938 192.283 251.049 192.356 251.115C192.439 251.174 192.557 251.225 192.71 251.266L192.773 251.284L192.445 252.489L192.14 252.406C191.709 252.289 191.371 252.128 191.126 251.923C190.882 251.719 190.757 251.41 190.752 250.995C190.462 251.256 190.115 251.446 189.71 251.565C189.305 251.684 188.852 251.676 188.353 251.54ZM188.933 250.513C189.415 250.645 189.842 250.577 190.215 250.311C190.587 250.046 190.861 249.693 191.035 249.254C190.863 249.152 190.656 249.04 190.416 248.92C190.177 248.8 189.925 248.704 189.663 248.632C189.214 248.51 188.85 248.512 188.57 248.638C188.291 248.764 188.109 248.98 188.025 249.288C187.953 249.553 187.995 249.799 188.152 250.025C188.308 250.251 188.569 250.414 188.933 250.513Z" fill="#1B1B26"/>
<path d="M195.059 253.201C194.662 253.093 194.34 252.955 194.095 252.787C193.858 252.621 193.708 252.388 193.645 252.086C193.582 251.784 193.619 251.381 193.756 250.876L194.664 247.542L193.585 247.248L193.909 246.055L194.989 246.349L195.432 244.72L196.829 245.101L196.385 246.729L198.074 247.189L197.749 248.382L196.06 247.922L195.205 251.064C195.137 251.312 195.109 251.502 195.118 251.633C195.139 251.758 195.204 251.853 195.313 251.92C195.43 251.989 195.608 252.055 195.845 252.12L196.607 252.327L196.278 253.533L195.059 253.201Z" fill="#1B1B26"/>
<path d="M199.408 254.55C198.781 254.38 198.264 254.092 197.856 253.687C197.459 253.276 197.188 252.784 197.044 252.212C196.908 251.643 196.93 251.029 197.109 250.37C197.288 249.712 197.582 249.167 197.99 248.737C198.401 248.298 198.886 248.003 199.445 247.852C200.004 247.701 200.601 247.712 201.236 247.885C201.854 248.053 202.353 248.341 202.733 248.747C203.124 249.148 203.384 249.613 203.512 250.144C203.64 250.675 203.628 251.222 203.474 251.787C203.451 251.872 203.425 251.966 203.397 252.069C203.372 252.163 203.334 252.267 203.285 252.382L198.409 251.055C198.282 251.654 198.349 252.159 198.61 252.57C198.88 252.983 199.251 253.254 199.725 253.383C200.089 253.482 200.422 253.481 200.722 253.379C201.031 253.279 201.284 253.1 201.482 252.842L202.891 253.226C202.557 253.787 202.081 254.199 201.464 254.462C200.846 254.726 200.161 254.755 199.408 254.55ZM200.922 249.039C200.473 248.917 200.044 248.942 199.633 249.115C199.222 249.288 198.909 249.621 198.693 250.113L202.172 251.06C202.277 250.574 202.211 250.148 201.975 249.78C201.738 249.413 201.387 249.166 200.922 249.039Z" fill="#1B1B26"/>
<path d="M205.94 256.329C205.33 256.163 204.832 255.871 204.446 255.454C204.06 255.036 203.8 254.538 203.666 253.96C203.541 253.384 203.566 252.776 203.74 252.135C203.915 251.493 204.201 250.961 204.598 250.536C205.007 250.105 205.482 249.812 206.024 249.657C206.577 249.495 207.159 249.498 207.768 249.663C208.259 249.797 208.664 250.013 208.983 250.311C209.304 250.601 209.523 250.949 209.639 251.358L210.68 247.536L212.076 247.916L209.562 257.15L208.165 256.769L208.431 255.795C208.155 256.041 207.807 256.231 207.389 256.365C206.973 256.491 206.49 256.478 205.94 256.329ZM206.529 255.167C207.096 255.321 207.615 255.251 208.086 254.957C208.557 254.663 208.877 254.208 209.044 253.592C209.214 252.968 209.169 252.414 208.91 251.93C208.653 251.438 208.241 251.115 207.674 250.96C207.107 250.806 206.588 250.876 206.117 251.17C205.648 251.456 205.33 251.906 205.162 252.522C205.048 252.941 205.033 253.331 205.116 253.694C205.199 254.056 205.36 254.366 205.599 254.624C205.847 254.884 206.156 255.065 206.529 255.167Z" fill="#1B1B26"/>
<path d="M212.931 261.098L213.242 259.956L214.55 260.312C214.736 260.363 214.892 260.359 215.016 260.302C215.141 260.244 215.329 260.056 215.579 259.738L216.272 258.894L215.33 251.888L216.853 252.303L217.474 257.486L220.739 253.36L222.211 253.761L216.73 260.52C216.425 260.905 216.176 261.187 215.982 261.363C215.797 261.543 215.619 261.646 215.448 261.672C215.277 261.699 215.056 261.676 214.785 261.602L212.931 261.098Z" fill="#1B1B26"/>
<path d="M223.177 261.022C222.551 260.852 222.034 260.564 221.626 260.159C221.229 259.748 220.958 259.256 220.813 258.684C220.678 258.115 220.699 257.501 220.879 256.842C221.058 256.184 221.352 255.639 221.76 255.209C222.17 254.77 222.655 254.475 223.214 254.324C223.774 254.173 224.371 254.184 225.006 254.357C225.624 254.525 226.123 254.813 226.503 255.219C226.894 255.619 227.154 256.085 227.282 256.616C227.41 257.147 227.397 257.694 227.244 258.258C227.22 258.344 227.195 258.438 227.167 258.541C227.141 258.635 227.104 258.739 227.054 258.854L222.179 257.527C222.052 258.126 222.119 258.631 222.38 259.042C222.649 259.455 223.021 259.726 223.495 259.855C223.859 259.954 224.191 259.953 224.492 259.851C224.801 259.751 225.054 259.572 225.252 259.314L226.661 259.698C226.326 260.259 225.85 260.671 225.233 260.934C224.616 261.198 223.931 261.227 223.177 261.022ZM224.691 255.511C224.243 255.389 223.813 255.414 223.402 255.587C222.992 255.76 222.678 256.093 222.462 256.585L225.941 257.532C226.046 257.046 225.981 256.62 225.744 256.252C225.508 255.885 225.157 255.638 224.691 255.511Z" fill="#1B1B26"/>
<path d="M229.145 262.482C228.747 262.373 228.426 262.235 228.181 262.068C227.944 261.902 227.794 261.668 227.731 261.366C227.667 261.065 227.704 260.661 227.842 260.157L228.75 256.823L227.67 256.529L227.995 255.336L229.074 255.63L229.518 254.001L230.914 254.382L230.471 256.01L232.16 256.47L231.835 257.663L230.146 257.203L229.291 260.345C229.223 260.593 229.194 260.782 229.204 260.914C229.225 261.039 229.289 261.134 229.399 261.201C229.516 261.27 229.694 261.336 229.931 261.401L230.692 261.608L230.364 262.814L229.145 262.482Z" fill="#1B1B26"/>
<defs>
<filter id="filter0_if_81_995" x="82.6222" y="236.325" width="86.5671" height="100.567" filterUnits="userSpaceOnUse" color-interpolation-filters="sRGB">
<feFlood flood-opacity="0" result="BackgroundImageFix"/>
<feBlend mode="normal" in="SourceGraphic" in2="BackgroundImageFix" result="shape"/>
<feColorMatrix in="SourceAlpha" type="matrix" values="0 0 0 0 0 0 0 0 0 0 0 0 0 0 0 0 0 0 127 0" result="hardAlpha"/>
<feOffset dx="-25" dy="39"/>
<feGaussianBlur stdDeviation="33"/>
<feComposite in2="hardAlpha" operator="arithmetic" k2="-1" k3="1"/>
<feColorMatrix type="matrix" values="0 0 0 0 0.145098 0 0 0 0 0.145098 0 0 0 0 0.266667 0 0 0 1 0"/>
<feBlend mode="normal" in2="shape" result="effect1_innerShadow_81_995"/>
<feGaussianBlur stdDeviation="3" result="effect2_foregroundBlur_81_995"/>
</filter>
<filter id="filter1_f_81_995" x="-60" y="0" width="483" height="483" filterUnits="userSpaceOnUse" color-interpolation-filters="sRGB">
<feFlood flood-opacity="0" result="BackgroundImageFix"/>
<feBlend mode="normal" in="SourceGraphic" in2="BackgroundImageFix" result="shape"/>
<feGaussianBlur stdDeviation="100" result="effect1_foregroundBlur_81_995"/>
</filter>
<filter id="filter2_i_81_995" x="191.589" y="263.384" width="105.896" height="133.896" filterUnits="userSpaceOnUse" color-interpolation-filters="sRGB">
<feFlood flood-opacity="0" result="BackgroundImageFix"/>
<feBlend mode="normal" in="SourceGraphic" in2="BackgroundImageFix" result="shape"/>
<feColorMatrix in="SourceAlpha" type="matrix" values="0 0 0 0 0 0 0 0 0 0 0 0 0 0 0 0 0 0 127 0" result="hardAlpha"/>
<feOffset dx="-11" dy="39"/>
<feGaussianBlur stdDeviation="33"/>
<feComposite in2="hardAlpha" operator="arithmetic" k2="-1" k3="1"/>
<feColorMatrix type="matrix" values="0 0 0 0 0.145098 0 0 0 0 0.145098 0 0 0 0 0.266667 0 0 0 1 0"/>
<feBlend mode="normal" in2="shape" result="effect1_innerShadow_81_995"/>
</filter>
<filter id="filter3_d_81_995" x="57.2539" y="252.781" width="135.016" height="141.633" filterUnits="userSpaceOnUse" color-interpolation-filters="sRGB">
<feFlood flood-opacity="0" result="BackgroundImageFix"/>
<feColorMatrix in="SourceAlpha" type="matrix" values="0 0 0 0 0 0 0 0 0 0 0 0 0 0 0 0 0 0 127 0" result="hardAlpha"/>
<feOffset dy="4"/>
<feGaussianBlur stdDeviation="10"/>
<feComposite in2="hardAlpha" operator="out"/>
<feColorMatrix type="matrix" values="0 0 0 0 0.298039 0 0 0 0 0.85098 0 0 0 0 0.392157 0 0 0 0.2 0"/>
<feBlend mode="normal" in2="BackgroundImageFix" result="effect1_dropShadow_81_995"/>
<feBlend mode="normal" in="SourceGraphic" in2="effect1_dropShadow_81_995" result="shape"/>
</filter>
<filter id="filter4_d_81_995" x="121.531" y="179.253" width="149.441" height="143.985" filterUnits="userSpaceOnUse" color-interpolation-filters="sRGB">
<feFlood flood-opacity="0" result="BackgroundImageFix"/>
<feColorMatrix in="SourceAlpha" type="matrix" values="0 0 0 0 0 0 0 0 0 0 0 0 0 0 0 0 0 0 127 0" result="hardAlpha"/>
<feOffset dy="4"/>
<feGaussianBlur stdDeviation="10"/>
<feComposite in2="hardAlpha" operator="out"/>
<feColorMatrix type="matrix" values="0 0 0 0 0.298039 0 0 0 0 0.85098 0 0 0 0 0.392157 0 0 0 0.2 0"/>
<feBlend mode="normal" in2="BackgroundImageFix" result="effect1_dropShadow_81_995"/>
<feBlend mode="normal" in="SourceGraphic" in2="effect1_dropShadow_81_995" result="shape"/>
</filter>
<linearGradient id="paint0_linear_81_995" x1="107.627" y1="270.109" x2="163.185" y2="270.109" gradientUnits="userSpaceOnUse">
<stop stop-color="#DDFC53"/>
<stop offset="1" stop-color="#7FDF76"/>
</linearGradient>
<linearGradient id="paint1_linear_81_995" x1="202.591" y1="310.832" x2="297.482" y2="310.832" gradientUnits="userSpaceOnUse">
<stop stop-color="#DDFC53"/>
<stop offset="1" stop-color="#7FDF76"/>
</linearGradient>
<linearGradient id="paint2_linear_81_995" x1="77.2539" y1="306.868" x2="172.269" y2="306.868" gradientUnits="userSpaceOnUse">
<stop stop-color="#DDFC53"/>
<stop offset="1" stop-color="#7FDF76"/>
</linearGradient>
<linearGradient id="paint3_linear_81_995" x1="73" y1="312.802" x2="167.153" y2="312.802" gradientUnits="userSpaceOnUse">
<stop stop-color="#DDFC53"/>
<stop offset="1" stop-color="#7FDF76"/>
</linearGradient>
<linearGradient id="paint4_linear_81_995" x1="141.587" y1="247.113" x2="250.883" y2="247.554" gradientUnits="userSpaceOnUse">
<stop stop-color="#DDFC53"/>
<stop offset="1" stop-color="#7FDF76"/>
</linearGradient>
</defs>
</svg>
