<svg width="328" height="318" viewBox="0 0 328 318" fill="none" xmlns="http://www.w3.org/2000/svg">
<g filter="url(#filter0_d_71_544)">
<path d="M255.373 122.744L123.527 87.416C119.156 86.2448 114.5 86.853 110.583 89.1066C106.667 91.3603 103.81 95.075 102.643 99.4334L76.2227 198.034C75.0549 202.392 75.6713 207.037 77.9363 210.947C80.2012 214.857 83.9293 217.712 88.3003 218.883L117.883 226.81L140.205 265.463C140.764 266.439 141.512 267.294 142.404 267.98C143.297 268.667 144.316 269.17 145.404 269.461C146.492 269.753 147.627 269.827 148.743 269.679C149.859 269.531 150.934 269.164 151.906 268.599L190.564 246.284L220.147 254.211C224.518 255.382 229.174 254.774 233.09 252.521C237.007 250.267 239.863 246.552 241.031 242.194L267.451 143.594C268.619 139.235 268.002 134.59 265.737 130.68C263.472 126.77 259.744 123.915 255.373 122.744ZM207 171.429L198.183 169.066C193.859 179.747 186.988 189.212 178.165 196.639C179.823 198.185 181.655 199.533 183.624 200.656C185.442 201.665 186.829 203.301 187.524 205.256C188.219 207.212 188.175 209.352 187.399 211.275C186.624 213.198 185.17 214.771 183.312 215.699C181.454 216.627 179.32 216.845 177.309 216.313L175.332 215.783C170.589 212.921 166.302 209.368 162.612 205.242C157.366 207.012 151.849 207.859 146.309 207.742L144.348 207.481C142.092 207.157 140.057 205.952 138.689 204.133C137.322 202.313 136.734 200.027 137.056 197.777C137.378 195.528 138.582 193.499 140.404 192.138C142.227 190.776 144.518 190.194 146.773 190.518C148.304 190.535 149.833 190.445 151.35 190.247C148.649 186.066 146.504 181.554 144.967 176.824C144.623 174.745 145.065 172.614 146.206 170.844C147.347 169.073 149.107 167.789 151.144 167.239C153.182 166.689 155.352 166.913 157.236 167.867C159.12 168.821 160.583 170.438 161.342 172.405C162.703 176.445 164.656 180.263 167.139 183.733C173.343 178.553 178.246 171.995 181.455 164.584L141.077 153.765C138.891 153.179 137.027 151.752 135.895 149.797C134.762 147.842 134.454 145.519 135.038 143.34C135.622 141.161 137.05 139.304 139.008 138.177C140.967 137.05 143.295 136.746 145.48 137.331L170.201 143.956C170.785 141.776 172.213 139.919 174.172 138.792C176.13 137.665 178.458 137.361 180.643 137.947C182.829 138.532 184.693 139.96 185.825 141.915C186.958 143.87 187.266 146.192 186.682 148.372L211.403 154.996C213.589 155.581 215.453 157.009 216.585 158.964C217.718 160.919 218.026 163.241 217.442 165.42C216.858 167.599 215.43 169.457 213.472 170.584C211.514 171.711 209.186 172.015 207 171.429Z" fill="url(#paint0_linear_71_544)"/>
</g>
<defs>
<filter id="filter0_d_71_544" x="0.644608" y="0.833008" width="326.384" height="316.92" filterUnits="userSpaceOnUse" color-interpolation-filters="sRGB">
<feFlood flood-opacity="0" result="BackgroundImageFix"/>
<feColorMatrix in="SourceAlpha" type="matrix" values="0 0 0 0 0 0 0 0 0 0 0 0 0 0 0 0 0 0 127 0" result="hardAlpha"/>
<feOffset dx="-8" dy="-19"/>
<feGaussianBlur stdDeviation="33.5"/>
<feComposite in2="hardAlpha" operator="out"/>
<feColorMatrix type="matrix" values="0 0 0 0 0.0243056 0 0 0 0 0.0757949 0 0 0 0 0.583333 0 0 0 0.49 0"/>
<feBlend mode="normal" in2="BackgroundImageFix" result="effect1_dropShadow_71_544"/>
<feBlend mode="normal" in="SourceGraphic" in2="effect1_dropShadow_71_544" result="shape"/>
</filter>
<linearGradient id="paint0_linear_71_544" x1="85.023" y1="165.191" x2="249.831" y2="209.351" gradientUnits="userSpaceOnUse">
<stop stop-color="#DDFC53"/>
<stop offset="1" stop-color="#7FDF76"/>
</linearGradient>
</defs>
</svg>
