<svg width="20" height="22" viewBox="0 0 20 22" fill="none" xmlns="http://www.w3.org/2000/svg">
<path fill-rule="evenodd" clip-rule="evenodd" d="M10.0003 0C6.17682 0 3.07726 2.9766 3.07726 6.64843V11.5732C3.07726 15.245 6.17682 18.2216 10.0003 18.2216C13.8239 18.2216 16.9234 15.245 16.9234 11.5732V6.64843C16.9234 2.97661 13.8239 0 10.0003 0ZM7.42058 5.70778C7.11188 5.4275 7.09822 4.95995 7.39009 4.66349L7.949 5.171C7.39009 4.66349 7.39093 4.66265 7.39093 4.66265L7.39179 4.66178L7.39353 4.66003L7.39718 4.65639L7.40512 4.64862C7.41071 4.64323 7.41688 4.6374 7.42366 4.6312C7.4372 4.61878 7.45312 4.60482 7.47159 4.58959C7.50854 4.55908 7.55547 4.52363 7.61349 4.48532C7.72987 4.40849 7.88889 4.32148 8.09889 4.23993C8.51989 4.07644 9.13245 3.93981 10.0003 3.93981C10.8682 3.93981 11.4808 4.07644 11.9018 4.23993C12.1118 4.32148 12.2708 4.40849 12.3872 4.48532C12.4452 4.52363 12.4921 4.55908 12.5291 4.58959C12.5476 4.60482 12.5634 4.61878 12.577 4.6312C12.5838 4.6374 12.59 4.64323 12.5956 4.64862L12.6034 4.65639L12.6071 4.66003L12.6089 4.66178L12.6098 4.66265C12.6098 4.66265 12.6106 4.66349 12.0628 5.16083L12.6106 4.66349C12.9024 4.95995 12.8888 5.4275 12.5801 5.70778C12.2821 5.97837 11.818 5.97551 11.5237 5.70825L11.5156 5.70278C11.4921 5.68728 11.432 5.65116 11.325 5.60959C11.1119 5.52685 10.6989 5.41724 10.0003 5.41724C9.30178 5.41724 8.88878 5.52685 8.67567 5.60959C8.56867 5.65116 8.50856 5.68728 8.48511 5.70278L8.477 5.70825C8.18267 5.97551 7.71861 5.97837 7.42058 5.70778ZM7.42058 8.66266C7.11188 8.38236 7.09822 7.91481 7.39009 7.61835L7.949 8.12586C7.39009 7.61835 7.39093 7.6175 7.39093 7.6175L7.39179 7.61664L7.39353 7.61488L7.39718 7.61125L7.40512 7.60348C7.41071 7.59809 7.41688 7.59226 7.42366 7.58606C7.4372 7.57364 7.45312 7.55967 7.47159 7.54444C7.50854 7.51394 7.55547 7.47848 7.61349 7.44017C7.72987 7.36335 7.88889 7.27634 8.09889 7.19478C8.51989 7.0313 9.13245 6.89467 10.0003 6.89467C10.8682 6.89467 11.4808 7.0313 11.9018 7.19478C12.1118 7.27634 12.2708 7.36335 12.3872 7.44017C12.4452 7.47848 12.4921 7.51394 12.5291 7.54444C12.5476 7.55967 12.5634 7.57364 12.577 7.58606C12.5838 7.59226 12.59 7.59809 12.5956 7.60348L12.6034 7.61125L12.6089 7.61664L12.6098 7.6175C12.6098 7.6175 12.6106 7.61834 12.0628 8.11569L12.6106 7.61835C12.9024 7.91481 12.8888 8.38236 12.5801 8.66266C12.2821 8.93319 11.818 8.93033 11.5237 8.66308L11.5156 8.65768C11.4921 8.64212 11.432 8.60601 11.325 8.5644C11.1119 8.48171 10.6989 8.3721 10.0003 8.3721C9.30178 8.3721 8.88878 8.48171 8.67567 8.5644C8.56867 8.60601 8.50856 8.64212 8.48511 8.65768L8.477 8.66308C8.18267 8.93033 7.71861 8.93319 7.42058 8.66266Z" fill="url(#paint0_linear_81_804)"/>
<path fill-rule="evenodd" clip-rule="evenodd" d="M0.769233 8.86458C1.19407 8.86458 1.53847 9.19525 1.53847 9.60321V11.5732C1.53847 16.061 5.32682 19.699 10 19.699C14.6732 19.699 18.4616 16.061 18.4616 11.5732V9.60321C18.4616 9.19525 18.8059 8.86458 19.2308 8.86458C19.6556 8.86458 20 9.19525 20 9.60321V11.5732C20 16.8769 15.5229 21.1765 10 21.1765C4.47716 21.1765 0 16.8769 0 11.5732V9.60321C0 9.19525 0.3444 8.86458 0.769233 8.86458Z" fill="url(#paint1_linear_81_804)"/>
<defs>
<linearGradient id="paint0_linear_81_804" x1="0" y1="10.5882" x2="20" y2="10.5882" gradientUnits="userSpaceOnUse">
<stop stop-color="#48C9B0"/>
<stop offset="1" stop-color="#3AADA3"/>
</linearGradient>
<linearGradient id="paint1_linear_81_804" x1="0" y1="10.5882" x2="20" y2="10.5882" gradientUnits="userSpaceOnUse">
<stop stop-color="#48C9B0"/>
<stop offset="1" stop-color="#3AADA3"/>
</linearGradient>
</defs>
</svg>
