<svg width="60" height="62" viewBox="0 0 60 62" fill="none" xmlns="http://www.w3.org/2000/svg">
<circle opacity="0.1" cx="29.5" cy="27.5" r="21.5" fill="white"/>
<g filter="url(#filter0_d_27_319)">
<path fill-rule="evenodd" clip-rule="evenodd" d="M30.0003 16C26.1768 16 23.0773 18.9766 23.0773 22.6484V27.5732C23.0773 31.245 26.1768 34.2216 30.0003 34.2216C33.8239 34.2216 36.9234 31.245 36.9234 27.5732V22.6484C36.9234 18.9766 33.8239 16 30.0003 16ZM27.4206 21.7078C27.1119 21.4275 27.0982 20.96 27.3901 20.6635L27.949 21.171C27.3901 20.6635 27.3909 20.6626 27.3909 20.6626L27.3918 20.6618L27.3935 20.66L27.3972 20.6564L27.4051 20.6486C27.4107 20.6432 27.4169 20.6374 27.4237 20.6312C27.4372 20.6188 27.4531 20.6048 27.4716 20.5896C27.5085 20.5591 27.5555 20.5236 27.6135 20.4853C27.7299 20.4085 27.8889 20.3215 28.0989 20.2399C28.5199 20.0764 29.1324 19.9398 30.0003 19.9398C30.8682 19.9398 31.4808 20.0764 31.9018 20.2399C32.1118 20.3215 32.2708 20.4085 32.3872 20.4853C32.4452 20.5236 32.4921 20.5591 32.5291 20.5896C32.5476 20.6048 32.5634 20.6188 32.577 20.6312C32.5838 20.6374 32.59 20.6432 32.5956 20.6486L32.6034 20.6564L32.6071 20.66L32.6089 20.6618L32.6098 20.6626C32.6098 20.6626 32.6106 20.6635 32.0628 21.1608L32.6106 20.6635C32.9024 20.96 32.8888 21.4275 32.5801 21.7078C32.2821 21.9784 31.818 21.9755 31.5237 21.7082L31.5156 21.7028C31.4921 21.6873 31.432 21.6512 31.325 21.6096C31.1119 21.5268 30.6989 21.4172 30.0003 21.4172C29.3018 21.4172 28.8888 21.5268 28.6757 21.6096C28.5687 21.6512 28.5086 21.6873 28.4851 21.7028L28.477 21.7082C28.1827 21.9755 27.7186 21.9784 27.4206 21.7078ZM27.4206 24.6627C27.1119 24.3824 27.0982 23.9148 27.3901 23.6184L27.949 24.1259C27.3901 23.6184 27.3909 23.6175 27.3909 23.6175L27.3918 23.6166L27.3935 23.6149L27.3972 23.6112L27.4051 23.6035C27.4107 23.5981 27.4169 23.5923 27.4237 23.5861C27.4372 23.5736 27.4531 23.5597 27.4716 23.5444C27.5085 23.5139 27.5555 23.4785 27.6135 23.4402C27.7299 23.3633 27.8889 23.2763 28.0989 23.1948C28.5199 23.0313 29.1324 22.8947 30.0003 22.8947C30.8682 22.8947 31.4808 23.0313 31.9018 23.1948C32.1118 23.2763 32.2708 23.3633 32.3872 23.4402C32.4452 23.4785 32.4921 23.5139 32.5291 23.5444C32.5476 23.5597 32.5634 23.5736 32.577 23.5861C32.5838 23.5923 32.59 23.5981 32.5956 23.6035L32.6034 23.6112L32.6089 23.6166L32.6098 23.6175C32.6098 23.6175 32.6106 23.6183 32.0628 24.1157L32.6106 23.6184C32.9024 23.9148 32.8888 24.3824 32.5801 24.6627C32.2821 24.9332 31.818 24.9303 31.5237 24.6631L31.5156 24.6577C31.4921 24.6421 31.432 24.606 31.325 24.5644C31.1119 24.4817 30.6989 24.3721 30.0003 24.3721C29.3018 24.3721 28.8888 24.4817 28.6757 24.5644C28.5687 24.606 28.5086 24.6421 28.4851 24.6577L28.477 24.6631C28.1827 24.9303 27.7186 24.9332 27.4206 24.6627Z" fill="url(#paint0_linear_27_319)"/>
<path fill-rule="evenodd" clip-rule="evenodd" d="M20.7692 24.8646C21.1941 24.8646 21.5385 25.1952 21.5385 25.6032V27.5732C21.5385 32.061 25.3268 35.699 30 35.699C34.6732 35.699 38.4616 32.061 38.4616 27.5732V25.6032C38.4616 25.1952 38.8059 24.8646 39.2308 24.8646C39.6556 24.8646 40 25.1952 40 25.6032V27.5732C40 32.8769 35.5229 37.1765 30 37.1765C24.4772 37.1765 20 32.8769 20 27.5732V25.6032C20 25.1952 20.3444 24.8646 20.7692 24.8646Z" fill="url(#paint1_linear_27_319)"/>
</g>
<defs>
<filter id="filter0_d_27_319" x="0" y="0" width="60" height="61.1765" filterUnits="userSpaceOnUse" color-interpolation-filters="sRGB">
<feFlood flood-opacity="0" result="BackgroundImageFix"/>
<feColorMatrix in="SourceAlpha" type="matrix" values="0 0 0 0 0 0 0 0 0 0 0 0 0 0 0 0 0 0 127 0" result="hardAlpha"/>
<feOffset dy="4"/>
<feGaussianBlur stdDeviation="10"/>
<feComposite in2="hardAlpha" operator="out"/>
<feColorMatrix type="matrix" values="0 0 0 0 0.298039 0 0 0 0 0.85098 0 0 0 0 0.392157 0 0 0 0.2 0"/>
<feBlend mode="normal" in2="BackgroundImageFix" result="effect1_dropShadow_27_319"/>
<feBlend mode="normal" in="SourceGraphic" in2="effect1_dropShadow_27_319" result="shape"/>
</filter>
<linearGradient id="paint0_linear_27_319" x1="20" y1="26.5882" x2="40" y2="26.5882" gradientUnits="userSpaceOnUse">
<stop stop-color="#DDFC53"/>
<stop offset="1" stop-color="#7FDF76"/>
</linearGradient>
<linearGradient id="paint1_linear_27_319" x1="20" y1="26.5882" x2="40" y2="26.5882" gradientUnits="userSpaceOnUse">
<stop stop-color="#DDFC53"/>
<stop offset="1" stop-color="#7FDF76"/>
</linearGradient>
</defs>
</svg>
