<svg width="22" height="25" viewBox="0 0 22 25" fill="none" xmlns="http://www.w3.org/2000/svg">
<path fill-rule="evenodd" clip-rule="evenodd" d="M11.0004 0C6.79451 0 3.38498 3.51404 3.38498 7.84884V13.6628C3.38498 17.9976 6.79451 21.5116 11.0004 21.5116C15.2063 21.5116 18.6158 17.9976 18.6158 13.6628V7.84884C18.6158 3.51405 15.2063 0 11.0004 0ZM8.16264 6.73835C7.82307 6.40746 7.80804 5.8555 8.1291 5.50551L8.7439 6.10465C8.1291 5.50551 8.13003 5.50451 8.13003 5.50451L8.13097 5.50349L8.13289 5.50143L8.1369 5.49713L8.14563 5.48795C8.15178 5.48159 8.15856 5.47471 8.16602 5.46739C8.18092 5.45273 8.19843 5.43625 8.21875 5.41826C8.2594 5.38225 8.31101 5.3404 8.37484 5.29516C8.50285 5.20446 8.67778 5.10175 8.90878 5.00548C9.37188 4.81246 10.0457 4.65116 11.0004 4.65116C11.955 4.65116 12.6289 4.81246 13.092 5.00548C13.323 5.10175 13.4979 5.20446 13.6259 5.29516C13.6897 5.3404 13.7413 5.38225 13.782 5.41826C13.8023 5.43625 13.8198 5.45273 13.8347 5.46739C13.8422 5.47471 13.849 5.48159 13.8551 5.48795L13.8638 5.49713L13.8678 5.50143L13.8698 5.50349L13.8708 5.50451C13.8708 5.50451 13.8716 5.50551 13.2691 6.09265L13.8716 5.50551C14.1927 5.8555 14.1777 6.40746 13.8381 6.73835C13.5103 7.0578 12.9998 7.05443 12.676 6.7389L12.6671 6.73245C12.6413 6.71415 12.5752 6.67151 12.4575 6.62244C12.2231 6.52475 11.7688 6.39535 11.0004 6.39535C10.232 6.39535 9.77765 6.52475 9.54323 6.62244C9.42553 6.67151 9.35941 6.71415 9.33362 6.73245L9.3247 6.7389C9.00093 7.05443 8.49047 7.0578 8.16264 6.73835ZM8.16264 10.2268C7.82307 9.89584 7.80804 9.34388 8.1291 8.99389L8.7439 9.59303C8.1291 8.99389 8.13003 8.99288 8.13003 8.99288L8.13097 8.99186L8.13289 8.98979L8.1369 8.9855L8.14563 8.97633C8.15178 8.96996 8.15856 8.96309 8.16602 8.95576C8.18092 8.9411 8.19843 8.92461 8.21875 8.90663C8.2594 8.87063 8.31101 8.82876 8.37484 8.78354C8.50285 8.69284 8.67778 8.59013 8.90878 8.49384C9.37188 8.30084 10.0457 8.13954 11.0004 8.13954C11.955 8.13954 12.6289 8.30084 13.092 8.49384C13.323 8.59013 13.4979 8.69284 13.6259 8.78354C13.6897 8.82876 13.7413 8.87063 13.782 8.90663C13.8023 8.92461 13.8198 8.9411 13.8347 8.95576C13.8422 8.96309 13.849 8.96996 13.8551 8.97633L13.8638 8.9855L13.8698 8.99186L13.8708 8.99288C13.8708 8.99288 13.8716 8.99388 13.2691 9.58103L13.8716 8.99389C14.1927 9.34388 14.1777 9.89584 13.8381 10.2268C13.5103 10.5461 12.9998 10.5428 12.676 10.2273L12.6671 10.2209C12.6413 10.2025 12.5752 10.1599 12.4575 10.1108C12.2231 10.0131 11.7688 9.88373 11.0004 9.88373C10.232 9.88373 9.77765 10.0131 9.54323 10.1108C9.42553 10.1599 9.35941 10.2025 9.33362 10.2209L9.3247 10.2273C9.00093 10.5428 8.49047 10.5461 8.16264 10.2268Z" fill="url(#paint0_linear_81_8809)"/>
<path fill-rule="evenodd" clip-rule="evenodd" d="M0.846157 10.4651C1.31347 10.4651 1.69231 10.8555 1.69231 11.3371V13.6627C1.69231 18.9609 5.8595 23.2557 11 23.2557C16.1405 23.2557 20.3077 18.9609 20.3077 13.6627V11.3371C20.3077 10.8555 20.6865 10.4651 21.1539 10.4651C21.6211 10.4651 22 10.8555 22 11.3371V13.6627C22 19.9241 17.0752 25 11 25C4.92487 25 0 19.9241 0 13.6627V11.3371C0 10.8555 0.37884 10.4651 0.846157 10.4651Z" fill="url(#paint1_linear_81_8809)"/>
<defs>
<linearGradient id="paint0_linear_81_8809" x1="0" y1="12.5" x2="22" y2="12.5" gradientUnits="userSpaceOnUse">
<stop stop-color="#DDFC53"/>
<stop offset="1" stop-color="#7FDF76"/>
</linearGradient>
<linearGradient id="paint1_linear_81_8809" x1="0" y1="12.5" x2="22" y2="12.5" gradientUnits="userSpaceOnUse">
<stop stop-color="#DDFC53"/>
<stop offset="1" stop-color="#7FDF76"/>
</linearGradient>
</defs>
</svg>
