<svg width="375" height="487" viewBox="0 0 375 487" fill="none" xmlns="http://www.w3.org/2000/svg">
<g style="mix-blend-mode:overlay" opacity="0.2" filter="url(#filter0_f_81_8790)">
<path fill-rule="evenodd" clip-rule="evenodd" d="M-39.801 105.361L-46.4413 63.4356L-4.51613 70.0759L2.12416 112.001L-39.801 105.361ZM-42.2948 107.855L-35.6545 149.78L-107.505 138.4L-107.036 141.363L-35.1852 152.743L-28.5449 194.668L-100.396 183.288L-99.9262 186.251L-28.0756 197.631L-21.4353 239.556L-93.2859 228.176L-92.8166 231.139L-20.966 242.519L-14.3257 284.444L-86.1763 273.064L-85.707 276.027L-13.8564 287.407L-7.2161 329.332L-79.0667 317.952L-78.5974 320.915L-6.7468 332.296L-0.106501 374.221L-71.9571 362.841L-71.4878 365.804L0.36281 377.184L6.56091 416.317L9.52398 416.786L3.32588 377.653L45.2511 384.293L51.4492 423.427L54.4122 423.896L48.2141 384.763L90.1392 391.403L96.3373 430.536L99.3004 431.006L93.1023 391.872L135.027 398.513L141.226 437.646L144.189 438.115L137.991 398.982L179.916 405.622L186.114 444.755L189.077 445.225L182.879 406.091L224.804 412.732L231.002 451.865L233.965 452.334L227.767 413.201L269.692 419.841L275.89 458.975L278.853 459.444L272.655 420.311L314.58 426.951L320.778 466.084L323.741 466.554L317.543 427.42L365.885 435.077L365.415 432.114L317.074 424.457L310.434 382.532L358.775 390.188L358.306 387.225L309.964 379.569L303.324 337.644L351.665 345.3L351.196 342.337L302.855 334.681L296.215 292.756L344.556 300.412L344.086 297.449L295.745 289.792L289.105 247.867L337.446 255.524L336.977 252.561L288.636 244.904L281.995 202.979L330.337 210.636L329.867 207.673L281.526 200.016L274.886 158.091L323.227 165.747L322.758 162.784L274.416 155.128L267.776 113.203L316.117 120.859L315.648 117.896L267.307 110.24L261.031 70.6165L258.068 70.1472L264.344 109.77L222.419 103.13L216.143 63.5069L213.18 63.0376L219.456 102.661L177.531 96.0205L171.255 56.3973L168.292 55.928L174.567 95.5512L132.642 88.9109L126.367 49.2877L123.403 48.8184L129.679 88.4416L87.754 81.8013L81.4783 42.1781L78.5153 41.7088L84.791 81.332L42.8658 74.6917L36.5901 35.0685L33.627 34.5992L39.9027 74.2224L-2.02236 67.5821L-8.29807 27.9589L-11.2611 27.4896L-4.98543 67.1128L-46.9106 60.4725L-53.1863 20.8493L-56.1494 20.38L-49.8737 60.0032L-121.724 48.6232L-121.255 51.5863L-49.4044 62.9663L-42.7641 104.891L-114.615 93.5114L-114.145 96.4745L-42.2948 107.855ZM314.111 423.988L307.471 382.063L265.546 375.422L272.186 417.348L314.111 423.988ZM269.223 416.878L262.582 374.953L220.657 368.313L227.298 410.238L269.223 416.878ZM224.335 409.769L217.694 367.843L175.769 361.203L182.409 403.128L224.335 409.769ZM179.446 402.659L172.806 360.734L130.881 354.094L137.521 396.019L179.446 402.659ZM134.558 395.549L127.918 353.624L85.9927 346.984L92.633 388.909L134.558 395.549ZM89.6699 388.44L83.0296 346.515L41.1045 339.874L47.7448 381.8L89.6699 388.44ZM44.7817 381.33L38.1415 339.405L-3.78373 332.765L2.85656 374.69L44.7817 381.33ZM37.6721 336.442L-4.25304 329.802L-10.8933 287.877L31.0319 294.517L37.6721 336.442ZM82.5603 343.552L40.6352 336.911L33.9949 294.986L75.92 301.627L82.5603 343.552ZM127.449 350.661L85.5234 344.021L78.8831 302.096L120.808 308.736L127.449 350.661ZM172.337 357.771L130.412 351.131L123.771 309.205L165.696 315.846L172.337 357.771ZM217.225 364.88L175.3 358.24L168.659 316.315L210.585 322.955L217.225 364.88ZM262.113 371.99L220.188 365.35L213.548 323.425L255.473 330.065L262.113 371.99ZM307.001 379.1L265.076 372.459L258.436 330.534L300.361 337.174L307.001 379.1ZM299.892 334.211L293.251 292.286L251.326 285.646L257.967 327.571L299.892 334.211ZM255.004 327.102L248.363 285.177L206.438 278.536L213.078 320.462L255.004 327.102ZM210.115 319.992L203.475 278.067L161.55 271.427L168.19 313.352L210.115 319.992ZM165.227 312.883L158.587 270.957L116.662 264.317L123.302 306.242L165.227 312.883ZM120.339 305.773L113.699 263.848L71.7735 257.208L78.4138 299.133L120.339 305.773ZM75.4507 298.663L68.8104 256.738L26.8853 250.098L33.5256 292.023L75.4507 298.663ZM30.5625 291.554L23.9223 249.629L-18.0029 242.988L-11.3626 284.914L30.5625 291.554ZM23.453 246.666L-18.4722 240.025L-25.1125 198.1L16.8127 204.741L23.453 246.666ZM68.3411 253.775L26.416 247.135L19.7757 205.21L61.7008 211.85L68.3411 253.775ZM113.229 260.885L71.3042 254.245L64.6639 212.319L106.589 218.96L113.229 260.885ZM158.118 267.994L116.192 261.354L109.552 219.429L151.477 226.069L158.118 267.994ZM203.006 275.104L161.081 268.464L154.44 226.539L196.366 233.179L203.006 275.104ZM247.894 282.214L205.969 275.573L199.329 233.648L241.254 240.288L247.894 282.214ZM292.782 289.323L250.857 282.683L244.217 240.758L286.142 247.398L292.782 289.323ZM285.673 244.435L279.032 202.51L237.107 195.87L243.747 237.795L285.673 244.435ZM240.784 237.325L234.144 195.4L192.219 188.76L198.859 230.685L240.784 237.325ZM195.896 230.216L189.256 188.291L147.331 181.65L153.971 223.576L195.896 230.216ZM151.008 223.106L144.368 181.181L102.443 174.541L109.083 216.466L151.008 223.106ZM106.12 215.997L99.4794 174.071L57.5543 167.431L64.1946 209.356L106.12 215.997ZM61.2315 208.887L54.5912 166.962L12.6661 160.322L19.3064 202.247L61.2315 208.887ZM16.3434 201.777L9.70307 159.852L-32.2221 153.212L-25.5818 195.137L16.3434 201.777ZM9.23376 156.889L-32.6914 150.249L-39.3317 108.324L2.59347 114.964L9.23376 156.889ZM54.1219 163.999L12.1968 157.359L5.55654 115.433L47.4816 122.074L54.1219 163.999ZM99.0101 171.108L57.085 164.468L50.4447 122.543L92.3699 129.183L99.0101 171.108ZM143.898 178.218L101.973 171.578L95.3329 129.653L137.258 136.293L143.898 178.218ZM188.787 185.328L146.861 178.687L140.221 136.762L182.146 143.402L188.787 185.328ZM233.675 192.437L191.75 185.797L185.109 143.872L227.034 150.512L233.675 192.437ZM278.563 199.547L236.638 192.907L229.998 150.981L271.923 157.622L278.563 199.547ZM271.453 154.659L264.813 112.733L222.888 106.093L229.528 148.018L271.453 154.659ZM226.565 147.549L219.925 105.624L178 98.9836L184.64 140.909L226.565 147.549ZM181.677 140.439L175.037 98.5143L133.112 91.874L139.752 133.799L181.677 140.439ZM136.789 133.33L130.148 91.4047L88.2233 84.7644L94.8636 126.69L136.789 133.33ZM91.9006 126.22L85.2603 84.2951L43.3351 77.6548L49.9754 119.58L91.9006 126.22ZM47.0123 119.111L40.372 77.1855L-1.55306 70.5452L5.08723 112.47L47.0123 119.111Z" fill="white"/>
</g>
<defs>
<filter id="filter0_f_81_8790" x="-141.724" y="0.380005" width="527.609" height="486.174" filterUnits="userSpaceOnUse" color-interpolation-filters="sRGB">
<feFlood flood-opacity="0" result="BackgroundImageFix"/>
<feBlend mode="normal" in="SourceGraphic" in2="BackgroundImageFix" result="shape"/>
<feGaussianBlur stdDeviation="10" result="effect1_foregroundBlur_81_8790"/>
</filter>
</defs>
</svg>
