<svg width="375" height="449" viewBox="0 0 375 449" fill="none" xmlns="http://www.w3.org/2000/svg">
<g filter="url(#filter0_if_81_2366)">
<circle cx="164.668" cy="333.707" r="52.2441" transform="rotate(-60 164.668 333.707)" fill="url(#paint0_linear_81_2366)"/>
</g>
<g opacity="0.5" filter="url(#filter1_i_81_2366)">
<circle cx="92.685" cy="237.702" r="89.2309" transform="rotate(4.49826 92.685 237.702)" fill="url(#paint1_linear_81_2366)"/>
</g>
<g opacity="0.5" filter="url(#filter2_bi_81_2366)">
<circle cx="235.086" cy="199.516" r="125.091" transform="rotate(4.49826 235.086 199.516)" fill="url(#paint2_linear_81_2366)"/>
</g>
<g filter="url(#filter3_d_81_2366)">
<rect x="79.7248" y="169.29" width="115.178" height="115.178" rx="13" transform="rotate(-16.0651 79.7248 169.29)" fill="#1B1B26"/>
</g>
<path d="M188.365 226.722L174.86 212.817L171.804 231.959M172.383 228.541L186.003 224.234M133.791 189.411L118.08 194.379M125.065 189.276L125.897 191.907M129.831 190.62C131.973 197.392 128.409 204.563 121.908 206.618M137.657 201.639C134.832 202.533 131.801 201.831 129.263 199.995M117.861 233.395C122.596 248.37 138.537 256.652 153.512 251.917L147.308 246.43M187.91 185.707C183.175 170.732 167.234 162.45 152.259 167.185L158.463 172.672M184.16 242.226C173.325 245.652 161.725 239.658 158.287 228.784C154.861 217.95 160.855 206.35 171.728 202.912C182.563 199.486 194.163 205.48 197.601 216.353C201.039 227.227 195.033 238.788 184.16 242.226ZM113.641 179.396L128.81 174.599C136.819 172.067 141.913 174.713 144.191 182.59L148.987 197.759C151.713 205.708 149.067 210.801 140.996 213.14L125.827 217.936C118.06 220.563 112.967 217.917 110.434 209.907L105.638 194.738C103.179 186.96 105.825 181.867 113.641 179.396Z" stroke="url(#paint3_linear_81_2366)" stroke-width="8" stroke-linecap="round" stroke-linejoin="round"/>
<g filter="url(#filter4_d_81_2366)">
<rect x="178.724" y="209.179" width="134.216" height="134.216" rx="18" transform="rotate(15.0551 178.724 209.179)" fill="url(#paint4_linear_81_2366)"/>
</g>
<path fill-rule="evenodd" clip-rule="evenodd" d="M235.781 254C221.699 250.154 207.075 258.778 203.119 273.264L197.812 292.692C193.855 307.178 202.063 322.04 216.146 325.886C230.228 329.733 244.852 321.108 248.808 306.622L254.115 287.194C258.072 272.708 249.864 257.847 235.781 254ZM220.129 273.923C219.294 272.506 219.748 270.648 221.142 269.772L222.654 272.337C221.142 269.772 221.146 269.77 221.146 269.77L221.15 269.767L221.159 269.762L221.176 269.751L221.214 269.729C221.24 269.713 221.269 269.696 221.301 269.678C221.364 269.643 221.437 269.604 221.522 269.563C221.691 269.479 221.902 269.387 222.157 269.294C222.668 269.108 223.348 268.925 224.209 268.814C225.936 268.593 228.339 268.67 231.536 269.543C234.732 270.416 236.841 271.571 238.215 272.64C238.901 273.173 239.393 273.676 239.739 274.096C239.911 274.306 240.046 274.493 240.149 274.651C240.201 274.729 240.244 274.8 240.281 274.863C240.299 274.894 240.316 274.923 240.33 274.95L240.351 274.989L240.361 275.007L240.365 275.016L240.368 275.02C240.368 275.02 240.37 275.024 237.816 276.435L240.37 275.024C241.125 276.487 240.571 278.318 239.132 279.113C237.743 279.881 236.037 279.403 235.241 278.052L235.217 278.023C235.147 277.938 234.964 277.735 234.615 277.463C233.919 276.922 232.516 276.074 229.944 275.372C227.371 274.669 225.732 274.686 224.857 274.798C224.419 274.854 224.158 274.936 224.055 274.974L224.019 274.987C222.647 275.745 220.935 275.29 220.129 273.923ZM216.945 285.58C216.11 284.163 216.564 282.305 217.958 281.429L219.47 283.994C217.958 281.429 217.962 281.427 217.962 281.427L217.966 281.424L217.974 281.419L217.992 281.408L218.029 281.386C218.056 281.37 218.085 281.353 218.116 281.336C218.18 281.3 218.253 281.261 218.338 281.22C218.507 281.137 218.718 281.044 218.973 280.951C219.484 280.765 220.164 280.582 221.025 280.471C222.752 280.25 225.155 280.327 228.352 281.2C231.548 282.073 233.657 283.229 235.031 284.297C235.717 284.83 236.209 285.333 236.555 285.754C236.727 285.963 236.862 286.15 236.965 286.308C237.017 286.386 237.06 286.457 237.097 286.52C237.115 286.551 237.131 286.581 237.146 286.607L237.167 286.646L237.181 286.673L237.183 286.677C237.183 286.677 237.185 286.681 234.632 288.092L237.185 286.681C237.941 288.144 237.387 289.975 235.948 290.771C234.559 291.538 232.853 291.06 232.056 289.709L232.032 289.68C231.963 289.595 231.78 289.392 231.431 289.12C230.735 288.58 229.332 287.732 226.759 287.029C224.187 286.326 222.547 286.343 221.673 286.455C221.234 286.511 220.974 286.593 220.871 286.631L220.835 286.644C219.463 287.403 217.751 286.947 216.945 285.58Z" fill="#1B1B26"/>
<path fill-rule="evenodd" clip-rule="evenodd" d="M192.23 279.685C193.795 280.112 194.707 281.763 194.267 283.373L192.144 291.144C187.308 308.849 197.341 327.013 214.552 331.714C231.764 336.416 249.637 325.874 254.473 308.17L256.596 300.398C257.036 298.789 258.66 297.83 260.225 298.258C261.79 298.685 262.702 300.336 262.262 301.946L260.14 309.717C254.424 330.641 233.301 343.099 212.96 337.543C192.619 331.987 180.763 310.52 186.478 289.597L188.601 281.825C189.04 280.216 190.665 279.258 192.23 279.685Z" fill="#1B1B26"/>
<defs>
<filter id="filter0_if_81_2366" x="87.415" y="275.454" width="135.506" height="149.506" filterUnits="userSpaceOnUse" color-interpolation-filters="sRGB">
<feFlood flood-opacity="0" result="BackgroundImageFix"/>
<feBlend mode="normal" in="SourceGraphic" in2="BackgroundImageFix" result="shape"/>
<feColorMatrix in="SourceAlpha" type="matrix" values="0 0 0 0 0 0 0 0 0 0 0 0 0 0 0 0 0 0 127 0" result="hardAlpha"/>
<feOffset dx="-25" dy="39"/>
<feGaussianBlur stdDeviation="33"/>
<feComposite in2="hardAlpha" operator="arithmetic" k2="-1" k3="1"/>
<feColorMatrix type="matrix" values="0 0 0 0 0.145098 0 0 0 0 0.145098 0 0 0 0 0.266667 0 0 0 1 0"/>
<feBlend mode="normal" in2="shape" result="effect1_innerShadow_81_2366"/>
<feGaussianBlur stdDeviation="3" result="effect2_foregroundBlur_81_2366"/>
</filter>
<filter id="filter1_i_81_2366" x="-7.55044" y="148.467" width="189.471" height="217.471" filterUnits="userSpaceOnUse" color-interpolation-filters="sRGB">
<feFlood flood-opacity="0" result="BackgroundImageFix"/>
<feBlend mode="normal" in="SourceGraphic" in2="BackgroundImageFix" result="shape"/>
<feColorMatrix in="SourceAlpha" type="matrix" values="0 0 0 0 0 0 0 0 0 0 0 0 0 0 0 0 0 0 127 0" result="hardAlpha"/>
<feOffset dx="-11" dy="39"/>
<feGaussianBlur stdDeviation="33"/>
<feComposite in2="hardAlpha" operator="arithmetic" k2="-1" k3="1"/>
<feColorMatrix type="matrix" values="0 0 0 0 0.145098 0 0 0 0 0.145098 0 0 0 0 0.266667 0 0 0 1 0"/>
<feBlend mode="normal" in2="shape" result="effect1_innerShadow_81_2366"/>
</filter>
<filter id="filter2_bi_81_2366" x="73.9895" y="38.419" width="322.194" height="322.194" filterUnits="userSpaceOnUse" color-interpolation-filters="sRGB">
<feFlood flood-opacity="0" result="BackgroundImageFix"/>
<feGaussianBlur in="BackgroundImageFix" stdDeviation="18"/>
<feComposite in2="SourceAlpha" operator="in" result="effect1_backgroundBlur_81_2366"/>
<feBlend mode="normal" in="SourceGraphic" in2="effect1_backgroundBlur_81_2366" result="shape"/>
<feColorMatrix in="SourceAlpha" type="matrix" values="0 0 0 0 0 0 0 0 0 0 0 0 0 0 0 0 0 0 127 0" result="hardAlpha"/>
<feOffset dx="15" dy="19"/>
<feGaussianBlur stdDeviation="25.5"/>
<feComposite in2="hardAlpha" operator="arithmetic" k2="-1" k3="1"/>
<feColorMatrix type="matrix" values="0 0 0 0 0.145098 0 0 0 0 0.145098 0 0 0 0 0.266667 0 0 0 0.56 0"/>
<feBlend mode="normal" in2="shape" result="effect2_innerShadow_81_2366"/>
</filter>
<filter id="filter3_d_81_2366" x="35.8113" y="83.5035" width="228.381" height="228.381" filterUnits="userSpaceOnUse" color-interpolation-filters="sRGB">
<feFlood flood-opacity="0" result="BackgroundImageFix"/>
<feColorMatrix in="SourceAlpha" type="matrix" values="0 0 0 0 0 0 0 0 0 0 0 0 0 0 0 0 0 0 127 0" result="hardAlpha"/>
<feOffset dx="-1" dy="-11"/>
<feGaussianBlur stdDeviation="23"/>
<feComposite in2="hardAlpha" operator="out"/>
<feColorMatrix type="matrix" values="0 0 0 0 0.40375 0 0 0 0 0.456613 0 0 0 0 0.95 0 0 0 0.33 0"/>
<feBlend mode="normal" in2="BackgroundImageFix" result="effect1_dropShadow_81_2366"/>
<feBlend mode="normal" in="SourceGraphic" in2="effect1_dropShadow_81_2366" result="shape"/>
</filter>
<filter id="filter4_d_81_2366" x="72.9145" y="127.232" width="290.365" height="290.365" filterUnits="userSpaceOnUse" color-interpolation-filters="sRGB">
<feFlood flood-opacity="0" result="BackgroundImageFix"/>
<feColorMatrix in="SourceAlpha" type="matrix" values="0 0 0 0 0 0 0 0 0 0 0 0 0 0 0 0 0 0 127 0" result="hardAlpha"/>
<feOffset dx="-8" dy="-19"/>
<feGaussianBlur stdDeviation="33.5"/>
<feComposite in2="hardAlpha" operator="out"/>
<feColorMatrix type="matrix" values="0 0 0 0 0.0243056 0 0 0 0 0.0757949 0 0 0 0 0.583333 0 0 0 0.49 0"/>
<feBlend mode="normal" in2="BackgroundImageFix" result="effect1_dropShadow_81_2366"/>
<feBlend mode="normal" in="SourceGraphic" in2="effect1_dropShadow_81_2366" result="shape"/>
</filter>
<linearGradient id="paint0_linear_81_2366" x1="112.424" y1="333.707" x2="216.912" y2="333.707" gradientUnits="userSpaceOnUse">
<stop stop-color="#DDFC53"/>
<stop offset="1" stop-color="#7FDF76"/>
</linearGradient>
<linearGradient id="paint1_linear_81_2366" x1="3.45406" y1="237.702" x2="181.916" y2="237.702" gradientUnits="userSpaceOnUse">
<stop stop-color="#DDFC53"/>
<stop offset="1" stop-color="#7FDF76"/>
</linearGradient>
<linearGradient id="paint2_linear_81_2366" x1="109.996" y1="199.516" x2="360.177" y2="199.516" gradientUnits="userSpaceOnUse">
<stop stop-color="#DDFC53"/>
<stop offset="1" stop-color="#7FDF76"/>
</linearGradient>
<linearGradient id="paint3_linear_81_2366" x1="114.19" y1="221.786" x2="191.581" y2="197.315" gradientUnits="userSpaceOnUse">
<stop stop-color="#DDFC53"/>
<stop offset="1" stop-color="#7FDF76"/>
</linearGradient>
<linearGradient id="paint4_linear_81_2366" x1="178.724" y1="276.287" x2="312.94" y2="276.287" gradientUnits="userSpaceOnUse">
<stop stop-color="#DDFC53"/>
<stop offset="1" stop-color="#7FDF76"/>
</linearGradient>
</defs>
</svg>
