<svg width="294" height="253" viewBox="0 0 294 253" fill="none" xmlns="http://www.w3.org/2000/svg">
<g filter="url(#filter0_d_71_569)">
<path d="M265.535 39.4327L196.757 24.8704C193.249 24.1277 189.565 25.394 187.227 28.1914C184.866 30.9872 184.209 34.8422 185.507 38.2244L196.063 65.7226L168.711 76.7735L158.155 49.2753C148.454 24.0047 120.112 11.7074 94.9757 21.8631L76.7409 29.2305C72.86 19.1202 61.5256 14.2024 51.4691 18.2655L33.2348 25.6327C23.1872 29.6922 18.1561 41.2219 22.0371 51.3322L29.0742 69.6645C32.9552 79.7748 44.2985 84.6889 54.346 80.6294L72.5808 73.2621C82.6373 69.199 87.6594 57.6728 83.7785 47.5625L102.013 40.1952C117.102 34.0987 134.101 41.482 139.921 56.6425L150.476 84.1406L104.889 102.559C101.008 92.4487 89.6738 87.531 79.6173 91.5941L61.3829 98.9612C51.3354 103.021 46.3043 114.551 50.1853 124.661L57.2224 142.993C61.1032 153.103 72.4465 158.017 82.4941 153.958L100.729 146.59C110.785 142.527 115.807 131.001 111.926 120.891L157.513 102.473L168.068 129.971C173.888 145.131 166.361 162.423 151.272 168.52L133.037 175.887C129.156 165.777 117.822 160.859 107.765 164.922L89.531 172.289C79.4836 176.349 74.4525 187.879 78.3333 197.989L85.3704 216.321C89.2514 226.431 100.595 231.346 110.642 227.286L128.877 219.919C138.933 215.856 143.955 204.33 140.074 194.219L158.309 186.852C183.445 176.696 196.004 147.874 186.303 122.603L175.748 95.1053L203.099 84.0544L213.655 111.553C214.953 114.935 217.997 117.294 221.581 117.688C223.199 117.871 224.814 117.632 226.291 117.035C228.068 116.317 229.627 115.083 230.76 113.451L271.389 54.6847C273.273 51.9653 273.694 48.4809 272.519 45.4195C271.344 42.3582 268.723 40.1136 265.535 39.4327Z" fill="url(#paint0_linear_71_569)"/>
</g>
<defs>
<filter id="filter0_d_71_569" x="0.726151" y="0.839539" width="292.449" height="251.871" filterUnits="userSpaceOnUse" color-interpolation-filters="sRGB">
<feFlood flood-opacity="0" result="BackgroundImageFix"/>
<feColorMatrix in="SourceAlpha" type="matrix" values="0 0 0 0 0 0 0 0 0 0 0 0 0 0 0 0 0 0 127 0" result="hardAlpha"/>
<feOffset dy="4"/>
<feGaussianBlur stdDeviation="10"/>
<feComposite in2="hardAlpha" operator="out"/>
<feColorMatrix type="matrix" values="0 0 0 0 0.298039 0 0 0 0 0.85098 0 0 0 0 0.392157 0 0 0 0.2 0"/>
<feBlend mode="normal" in2="BackgroundImageFix" result="effect1_dropShadow_71_569"/>
<feBlend mode="normal" in="SourceGraphic" in2="effect1_dropShadow_71_569" result="shape"/>
</filter>
<linearGradient id="paint0_linear_71_569" x1="53.7037" y1="133.827" x2="273.995" y2="49.2647" gradientUnits="userSpaceOnUse">
<stop stop-color="#DDFC53"/>
<stop offset="1" stop-color="#7FDF76"/>
</linearGradient>
</defs>
</svg>
