<svg width="375" height="472" viewBox="0 0 375 472" fill="none" xmlns="http://www.w3.org/2000/svg">
<g filter="url(#filter0_f_38_905)">
<ellipse cx="187.262" cy="235.677" rx="125.96" ry="56.3401" fill="#1B1B26"/>
</g>
<g filter="url(#filter1_f_38_905)">
<g filter="url(#filter2_i_38_905)">
<circle cx="305.577" cy="340.711" r="62.3765" fill="#1B1B26"/>
</g>
</g>
<g filter="url(#filter3_f_38_905)">
<g filter="url(#filter4_i_38_905)">
<circle cx="51.2413" cy="241.713" r="62.3765" fill="#1B1B26"/>
</g>
</g>
<g filter="url(#filter5_di_38_905)">
<circle cx="184.445" cy="197.044" r="107.046" fill="#1B1B26"/>
</g>
<g filter="url(#filter6_d_38_905)">
<path fill-rule="evenodd" clip-rule="evenodd" d="M203.387 244.614C202.459 247.73 199.134 249.493 195.965 248.549L150.034 234.871C146.865 233.928 145.046 230.633 145.973 227.517L159.42 182.361C160.348 179.245 163.673 177.482 166.843 178.426L212.773 192.103C215.942 193.047 217.762 196.342 216.834 199.457L203.387 244.614ZM181.687 170.556L184.826 160.014C186.167 155.509 189.862 151.857 194.564 151.094C202.577 149.794 208.077 156.237 208.419 162.521C208.547 164.863 210.356 166.803 212.636 167.482C216.54 168.644 220.596 165.686 220.262 161.685C219.318 150.225 209.88 138.745 195.907 139.174C185.133 139.505 176.111 147.302 173.082 157.474L170.204 167.137C160.691 164.304 150.723 169.588 147.938 178.941L134.491 224.098C131.706 233.451 137.159 243.328 146.672 246.161L192.603 259.838C202.116 262.671 212.084 257.386 214.87 248.033L228.316 202.877C231.102 193.524 225.648 183.647 216.135 180.814L181.687 170.556Z" fill="url(#paint0_linear_38_905)"/>
</g>
<g filter="url(#filter7_f_38_905)">
<path fill-rule="evenodd" clip-rule="evenodd" d="M300.495 357.188C300.815 358.264 301.963 358.872 303.058 358.547L318.918 353.824C320.013 353.498 320.641 352.36 320.32 351.284L315.677 335.691C315.357 334.615 314.208 334.006 313.114 334.332L297.253 339.055C296.159 339.381 295.531 340.519 295.851 341.595L300.495 357.188ZM307.988 331.614L306.904 327.974C306.441 326.419 305.165 325.158 303.541 324.894C300.774 324.445 298.875 326.67 298.757 328.84C298.713 329.649 298.088 330.319 297.301 330.553C295.953 330.954 294.552 329.933 294.667 328.551C294.993 324.594 298.253 320.63 303.078 320.778C306.798 320.892 309.914 323.585 310.96 327.097L311.953 330.434C315.238 329.455 318.68 331.28 319.642 334.51L324.286 350.103C325.247 353.333 323.364 356.744 320.079 357.722L304.219 362.445C300.933 363.423 297.491 361.598 296.53 358.369L291.886 342.775C290.924 339.546 292.808 336.135 296.093 335.157L307.988 331.614Z" fill="url(#paint1_linear_38_905)"/>
</g>
<g filter="url(#filter8_f_38_905)">
<path fill-rule="evenodd" clip-rule="evenodd" d="M57.8593 258.19C57.5389 259.266 56.3907 259.875 55.2963 259.549L39.4357 254.826C38.3414 254.5 37.7132 253.362 38.0336 252.286L42.677 236.693C42.9974 235.617 44.1456 235.009 45.24 235.334L61.1005 240.057C62.1949 240.383 62.8231 241.521 62.5027 242.597L57.8593 258.19ZM50.366 232.617L51.45 228.977C51.9132 227.421 53.1888 226.16 54.8126 225.897C57.5796 225.447 59.479 227.672 59.5969 229.842C59.641 230.651 60.266 231.321 61.053 231.555C62.4012 231.957 63.8019 230.935 63.6867 229.553C63.3606 225.596 60.1014 221.632 55.2764 221.78C51.5559 221.895 48.4404 224.587 47.3945 228.099L46.4008 231.436C43.1157 230.458 39.6736 232.283 38.7118 235.513L34.0684 251.106C33.1067 254.335 34.9898 257.746 38.2749 258.724L54.1354 263.447C57.4206 264.426 60.8627 262.601 61.8244 259.371L66.4678 243.778C67.4296 240.548 65.5465 237.137 62.2614 236.159L50.366 232.617Z" fill="url(#paint2_linear_38_905)"/>
</g>
<defs>
<filter id="filter0_f_38_905" x="-64.698" y="53.3369" width="503.921" height="364.68" filterUnits="userSpaceOnUse" color-interpolation-filters="sRGB">
<feFlood flood-opacity="0" result="BackgroundImageFix"/>
<feBlend mode="normal" in="SourceGraphic" in2="BackgroundImageFix" result="shape"/>
<feGaussianBlur stdDeviation="63" result="effect1_foregroundBlur_38_905"/>
</filter>
<filter id="filter1_f_38_905" x="237.2" y="272.334" width="136.753" height="136.753" filterUnits="userSpaceOnUse" color-interpolation-filters="sRGB">
<feFlood flood-opacity="0" result="BackgroundImageFix"/>
<feBlend mode="normal" in="SourceGraphic" in2="BackgroundImageFix" result="shape"/>
<feGaussianBlur stdDeviation="3" result="effect1_foregroundBlur_38_905"/>
</filter>
<filter id="filter2_i_38_905" x="243.2" y="278.334" width="124.753" height="124.753" filterUnits="userSpaceOnUse" color-interpolation-filters="sRGB">
<feFlood flood-opacity="0" result="BackgroundImageFix"/>
<feBlend mode="normal" in="SourceGraphic" in2="BackgroundImageFix" result="shape"/>
<feColorMatrix in="SourceAlpha" type="matrix" values="0 0 0 0 0 0 0 0 0 0 0 0 0 0 0 0 0 0 127 0" result="hardAlpha"/>
<feOffset/>
<feGaussianBlur stdDeviation="31.5"/>
<feComposite in2="hardAlpha" operator="arithmetic" k2="-1" k3="1"/>
<feColorMatrix type="matrix" values="0 0 0 0 0.498039 0 0 0 0 0.87451 0 0 0 0 0.462745 0 0 0 1 0"/>
<feBlend mode="normal" in2="shape" result="effect1_innerShadow_38_905"/>
</filter>
<filter id="filter3_f_38_905" x="-17.1353" y="173.337" width="136.753" height="136.753" filterUnits="userSpaceOnUse" color-interpolation-filters="sRGB">
<feFlood flood-opacity="0" result="BackgroundImageFix"/>
<feBlend mode="normal" in="SourceGraphic" in2="BackgroundImageFix" result="shape"/>
<feGaussianBlur stdDeviation="3" result="effect1_foregroundBlur_38_905"/>
</filter>
<filter id="filter4_i_38_905" x="-11.1353" y="179.337" width="124.753" height="124.753" filterUnits="userSpaceOnUse" color-interpolation-filters="sRGB">
<feFlood flood-opacity="0" result="BackgroundImageFix"/>
<feBlend mode="normal" in="SourceGraphic" in2="BackgroundImageFix" result="shape"/>
<feColorMatrix in="SourceAlpha" type="matrix" values="0 0 0 0 0 0 0 0 0 0 0 0 0 0 0 0 0 0 127 0" result="hardAlpha"/>
<feOffset/>
<feGaussianBlur stdDeviation="31.5"/>
<feComposite in2="hardAlpha" operator="arithmetic" k2="-1" k3="1"/>
<feColorMatrix type="matrix" values="0 0 0 0 0.498039 0 0 0 0 0.87451 0 0 0 0 0.462745 0 0 0 1 0"/>
<feBlend mode="normal" in2="shape" result="effect1_innerShadow_38_905"/>
</filter>
<filter id="filter5_di_38_905" x="38.3992" y="54.9976" width="292.092" height="292.092" filterUnits="userSpaceOnUse" color-interpolation-filters="sRGB">
<feFlood flood-opacity="0" result="BackgroundImageFix"/>
<feColorMatrix in="SourceAlpha" type="matrix" values="0 0 0 0 0 0 0 0 0 0 0 0 0 0 0 0 0 0 127 0" result="hardAlpha"/>
<feOffset dy="4"/>
<feGaussianBlur stdDeviation="19.5"/>
<feComposite in2="hardAlpha" operator="out"/>
<feColorMatrix type="matrix" values="0 0 0 0 0.388235 0 0 0 0 0.980392 0 0 0 0 0.45732 0 0 0 0.27 0"/>
<feBlend mode="normal" in2="BackgroundImageFix" result="effect1_dropShadow_38_905"/>
<feBlend mode="normal" in="SourceGraphic" in2="effect1_dropShadow_38_905" result="shape"/>
<feColorMatrix in="SourceAlpha" type="matrix" values="0 0 0 0 0 0 0 0 0 0 0 0 0 0 0 0 0 0 127 0" result="hardAlpha"/>
<feOffset/>
<feGaussianBlur stdDeviation="23"/>
<feComposite in2="hardAlpha" operator="arithmetic" k2="-1" k3="1"/>
<feColorMatrix type="matrix" values="0 0 0 0 0.498039 0 0 0 0 0.87451 0 0 0 0 0.462745 0 0 0 1 0"/>
<feBlend mode="normal" in2="shape" result="effect2_innerShadow_38_905"/>
</filter>
<filter id="filter6_d_38_905" x="113.763" y="123.163" width="135.281" height="161.44" filterUnits="userSpaceOnUse" color-interpolation-filters="sRGB">
<feFlood flood-opacity="0" result="BackgroundImageFix"/>
<feColorMatrix in="SourceAlpha" type="matrix" values="0 0 0 0 0 0 0 0 0 0 0 0 0 0 0 0 0 0 127 0" result="hardAlpha"/>
<feOffset dy="4"/>
<feGaussianBlur stdDeviation="10"/>
<feComposite in2="hardAlpha" operator="out"/>
<feColorMatrix type="matrix" values="0 0 0 0 0.298039 0 0 0 0 0.85098 0 0 0 0 0.392157 0 0 0 0.2 0"/>
<feBlend mode="normal" in2="BackgroundImageFix" result="effect1_dropShadow_38_905"/>
<feBlend mode="normal" in="SourceGraphic" in2="effect1_dropShadow_38_905" result="shape"/>
</filter>
<filter id="filter7_f_38_905" x="287.635" y="316.774" width="40.902" height="49.935" filterUnits="userSpaceOnUse" color-interpolation-filters="sRGB">
<feFlood flood-opacity="0" result="BackgroundImageFix"/>
<feBlend mode="normal" in="SourceGraphic" in2="BackgroundImageFix" result="shape"/>
<feGaussianBlur stdDeviation="2" result="effect1_foregroundBlur_38_905"/>
</filter>
<filter id="filter8_f_38_905" x="29.8171" y="217.776" width="40.902" height="49.935" filterUnits="userSpaceOnUse" color-interpolation-filters="sRGB">
<feFlood flood-opacity="0" result="BackgroundImageFix"/>
<feBlend mode="normal" in="SourceGraphic" in2="BackgroundImageFix" result="shape"/>
<feGaussianBlur stdDeviation="2" result="effect1_foregroundBlur_38_905"/>
</filter>
<linearGradient id="paint0_linear_38_905" x1="146.257" y1="184.586" x2="226.636" y2="208.521" gradientUnits="userSpaceOnUse">
<stop stop-color="#DDFC53"/>
<stop offset="1" stop-color="#7FDF76"/>
</linearGradient>
<linearGradient id="paint1_linear_38_905" x1="320.223" y1="336.459" x2="292.467" y2="344.724" gradientUnits="userSpaceOnUse">
<stop stop-color="#DDFC53"/>
<stop offset="1" stop-color="#7FDF76"/>
</linearGradient>
<linearGradient id="paint2_linear_38_905" x1="38.1314" y1="237.462" x2="65.8874" y2="245.727" gradientUnits="userSpaceOnUse">
<stop stop-color="#DDFC53"/>
<stop offset="1" stop-color="#7FDF76"/>
</linearGradient>
</defs>
</svg>
