<svg width="18" height="18" viewBox="0 0 18 18" fill="none" xmlns="http://www.w3.org/2000/svg">
<path d="M12.7759 1.96003C12.9746 1.76135 13.2105 1.60374 13.4701 1.49621C13.7297 1.38869 14.0079 1.33334 14.2889 1.33334C14.5699 1.33334 14.8481 1.38869 15.1077 1.49621C15.3673 1.60374 15.6032 1.76135 15.8019 1.96003C16.0006 2.15872 16.1582 2.39459 16.2657 2.65419C16.3732 2.91378 16.4286 3.19201 16.4286 3.473C16.4286 3.75398 16.3732 4.03221 16.2657 4.29181C16.1582 4.5514 16.0006 4.78728 15.8019 4.98596L5.58936 15.1985L1.42871 16.3332L2.56343 12.1725L12.7759 1.96003Z" stroke="white" stroke-width="1.5" stroke-linecap="round" stroke-linejoin="round"/>
</svg>
