<svg width="375" height="259" viewBox="0 0 375 259" fill="none" xmlns="http://www.w3.org/2000/svg">
<mask id="mask0_35_441" style="mask-type:luminance" maskUnits="userSpaceOnUse" x="-301" y="0" width="906" height="259">
<path d="M605 0H-301V259H605V0Z" fill="white"/>
</mask>
<g mask="url(#mask0_35_441)">
<g opacity="0.1">
<path d="M-303.596 129.5C-267.3 129.5 -227.924 163.886 -172.597 163.886C-94.921 163.886 -42.7571 54.4807 66.1355 54.4807C152.129 54.4807 253.667 198.385 348.195 198.385C416.112 198.385 472.675 124.861 543.89 119.417C566.048 117.481 585.404 127.458 607.596 129.5" stroke="#2B86FF" stroke-width="5"/>
</g>
<g opacity="0.25">
<path d="M-303.596 129.5C-267.3 129.5 -228.691 159.382 -173.364 159.382C-89.9322 159.382 -56.5078 62.6995 59.6344 62.6995C135.821 62.6995 243.014 191.92 343.141 191.92C395.495 191.92 455.79 123.725 534.467 118.068C556.625 116.069 574.625 124.45 607.596 129.5" stroke="#4B40FF" stroke-width="5"/>
</g>
<g opacity="0.4">
<path d="M-303.596 129.5C-267.3 129.5 -227.995 155.126 -172.668 155.126C-89.2356 155.126 -69.168 70.1458 46.9743 70.1458C123.161 70.1458 233.845 185.187 321.539 184.965C380.715 184.824 436.658 121.962 520.449 115.738C537.193 113.654 567.376 122.153 607.596 129.5" stroke="#781FEC" stroke-width="5"/>
</g>
<g opacity="0.55">
<path d="M-303.596 129.5C-267.3 129.5 -230.716 151.093 -175.389 151.093C-91.9567 151.093 -75.3449 77.9465 40.7947 77.4904C113.531 77.1572 214.422 179.324 302.107 178.601C364.512 178.045 419.13 120.107 502.924 114.451C525.082 112.452 566.523 124.365 607.596 129.5" stroke="#7413B1" stroke-width="5"/>
</g>
<g opacity="0.7">
<path d="M-303.596 129.5C-274.123 129.5 -235.289 147.389 -179.962 147.416C-96.0184 147.459 -85.5627 85.851 30.5769 85.3949C103.313 85.0617 195.5 173.341 283.184 172.329C348.573 171.561 403.535 117.234 487.328 111.577C509.487 109.578 568.826 126.577 607.596 129.5" stroke="#9437C7" stroke-width="5"/>
</g>
<g opacity="0.85">
<path d="M-303.596 129.5C-273.952 129.5 -239.078 144.374 -183.757 143.775C-97.4249 142.796 -94.8352 92.9664 21.3044 92.5102C94.0407 92.1771 173.497 167.337 261.175 166.14C331.683 165.039 382.279 116.05 466.072 110.393C488.231 108.394 561.747 126.917 607.596 129.5" stroke="#F026E7" stroke-width="5"/>
</g>
<path d="M-356.035 129.5C-356.035 129.5 -309.437 129.5 -303.596 129.5C-291.741 129.5 -278.576 135.17 -249.45 137.812C-208.554 141.544 -168.277 140.229 -149.336 134.94C-89.2537 118.16 -66.3247 100.865 -13.7518 99.4063C16.4646 98.556 52.3255 104.403 101.58 123.447C137.558 137.356 185.022 155.449 213.689 157.965C254.469 161.543 293.012 156.039 328.005 143.033C359.096 131.479 403.346 111.873 427.216 109.715C459.963 106.766 491.192 112.908 523.192 119.313C548.886 124.47 576.618 129.5 607.596 129.5C609.673 129.5 652.247 129.5 652.247 129.5" stroke="#9437C7" stroke-width="10" stroke-linecap="round" stroke-linejoin="round"/>
</g>
</svg>
