<svg width="375" height="812" viewBox="0 0 375 812" fill="none" xmlns="http://www.w3.org/2000/svg">
<g clip-path="url(#clip0_1_497)">
<rect width="375" height="812" fill="#1B1B26"/>
<g filter="url(#filter0_f_1_497)">
<circle cx="40" cy="681" r="121" fill="#39397B"/>
</g>
<g filter="url(#filter1_f_1_497)">
<circle cx="330" cy="105" r="121" fill="#8BE495"/>
</g>
<g style="mix-blend-mode:overlay" opacity="0.2" filter="url(#filter2_f_1_497)">
<path fill-rule="evenodd" clip-rule="evenodd" d="M-39.801 112.361L-46.4413 70.4356L-4.51613 77.0759L2.12416 119.001L-39.801 112.361ZM-42.2948 114.855L-35.6545 156.78L-107.505 145.4L-107.036 148.363L-35.1852 159.743L-28.5449 201.668L-100.396 190.288L-99.9262 193.251L-28.0756 204.631L-21.4353 246.556L-93.2859 235.176L-92.8166 238.139L-20.966 249.519L-14.3257 291.444L-86.1763 280.064L-85.707 283.027L-13.8564 294.407L-7.2161 336.332L-79.0667 324.952L-78.5974 327.915L-6.7468 339.296L-0.106504 381.221L-71.9571 369.841L-71.4878 372.804L0.362806 384.184L6.56091 423.317L9.52398 423.786L3.32587 384.653L45.2511 391.293L51.4492 430.427L54.4122 430.896L48.2141 391.763L90.1392 398.403L96.3373 437.536L99.3004 438.006L93.1023 398.872L135.027 405.513L141.226 444.646L144.189 445.115L137.991 405.982L179.916 412.622L186.114 451.755L189.077 452.225L182.879 413.091L224.804 419.732L231.002 458.865L233.965 459.334L227.767 420.201L269.692 426.841L275.89 465.975L278.853 466.444L272.655 427.311L314.58 433.951L320.778 473.084L323.741 473.554L317.543 434.42L365.885 442.077L365.415 439.114L317.074 431.457L310.434 389.532L358.775 397.188L358.306 394.225L309.964 386.569L303.324 344.644L351.665 352.3L351.196 349.337L302.855 341.681L296.215 299.756L344.556 307.412L344.086 304.449L295.745 296.793L289.105 254.867L337.446 262.524L336.977 259.561L288.636 251.904L281.995 209.979L330.337 217.636L329.867 214.673L281.526 207.016L274.886 165.091L323.227 172.747L322.758 169.784L274.416 162.128L267.776 120.203L316.117 127.859L315.648 124.896L267.307 117.24L261.031 77.6165L258.068 77.1472L264.344 116.77L222.419 110.13L216.143 70.5069L213.18 70.0376L219.456 109.661L177.531 103.021L171.255 63.3973L168.292 62.928L174.567 102.551L132.642 95.9109L126.367 56.2877L123.403 55.8184L129.679 95.4416L87.754 88.8013L81.4783 49.1781L78.5153 48.7088L84.791 88.332L42.8658 81.6917L36.5901 42.0685L33.627 41.5992L39.9027 81.2224L-2.02237 74.5821L-8.29808 34.9589L-11.2611 34.4896L-4.98543 74.1128L-46.9106 67.4725L-53.1863 27.8493L-56.1494 27.38L-49.8737 67.0032L-121.724 55.6232L-121.255 58.5863L-49.4044 69.9663L-42.7641 111.891L-114.615 100.511L-114.145 103.475L-42.2948 114.855ZM314.111 430.988L307.471 389.063L265.546 382.422L272.186 424.348L314.111 430.988ZM269.223 423.878L262.582 381.953L220.657 375.313L227.298 417.238L269.223 423.878ZM224.335 416.769L217.694 374.843L175.769 368.203L182.409 410.128L224.335 416.769ZM179.446 409.659L172.806 367.734L130.881 361.094L137.521 403.019L179.446 409.659ZM134.558 402.549L127.918 360.624L85.9927 353.984L92.633 395.909L134.558 402.549ZM89.6699 395.44L83.0296 353.515L41.1045 346.874L47.7448 388.8L89.6699 395.44ZM44.7817 388.33L38.1414 346.405L-3.78374 339.765L2.85656 381.69L44.7817 388.33ZM37.6721 343.442L-4.25304 336.802L-10.8933 294.877L31.0319 301.517L37.6721 343.442ZM82.5603 350.552L40.6352 343.911L33.9949 301.986L75.92 308.627L82.5603 350.552ZM127.449 357.661L85.5234 351.021L78.8831 309.096L120.808 315.736L127.449 357.661ZM172.337 364.771L130.412 358.131L123.771 316.205L165.696 322.846L172.337 364.771ZM217.225 371.88L175.3 365.24L168.66 323.315L210.585 329.955L217.225 371.88ZM262.113 378.99L220.188 372.35L213.548 330.425L255.473 337.065L262.113 378.99ZM307.001 386.1L265.076 379.459L258.436 337.534L300.361 344.174L307.001 386.1ZM299.892 341.211L293.251 299.286L251.326 292.646L257.967 334.571L299.892 341.211ZM255.004 334.102L248.363 292.177L206.438 285.536L213.078 327.462L255.004 334.102ZM210.115 326.992L203.475 285.067L161.55 278.427L168.19 320.352L210.115 326.992ZM165.227 319.883L158.587 277.957L116.662 271.317L123.302 313.242L165.227 319.883ZM120.339 312.773L113.699 270.848L71.7735 264.208L78.4138 306.133L120.339 312.773ZM75.4507 305.663L68.8104 263.738L26.8853 257.098L33.5256 299.023L75.4507 305.663ZM30.5625 298.554L23.9223 256.629L-18.0029 249.988L-11.3626 291.914L30.5625 298.554ZM23.453 253.666L-18.4722 247.025L-25.1125 205.1L16.8127 211.741L23.453 253.666ZM68.3411 260.775L26.416 254.135L19.7757 212.21L61.7008 218.85L68.3411 260.775ZM113.229 267.885L71.3042 261.245L64.6639 219.319L106.589 225.96L113.229 267.885ZM158.118 274.994L116.192 268.354L109.552 226.429L151.477 233.069L158.118 274.994ZM203.006 282.104L161.081 275.464L154.44 233.539L196.366 240.179L203.006 282.104ZM247.894 289.214L205.969 282.573L199.329 240.648L241.254 247.288L247.894 289.214ZM292.782 296.323L250.857 289.683L244.217 247.758L286.142 254.398L292.782 296.323ZM285.673 251.435L279.032 209.51L237.107 202.87L243.747 244.795L285.673 251.435ZM240.784 244.325L234.144 202.4L192.219 195.76L198.859 237.685L240.784 244.325ZM195.896 237.216L189.256 195.291L147.331 188.65L153.971 230.576L195.896 237.216ZM151.008 230.106L144.368 188.181L102.443 181.541L109.083 223.466L151.008 230.106ZM106.12 222.997L99.4794 181.071L57.5543 174.431L64.1946 216.356L106.12 222.997ZM61.2315 215.887L54.5912 173.962L12.6661 167.322L19.3064 209.247L61.2315 215.887ZM16.3434 208.777L9.70306 166.852L-32.2221 160.212L-25.5818 202.137L16.3434 208.777ZM9.23376 163.889L-32.6914 157.249L-39.3317 115.324L2.59347 121.964L9.23376 163.889ZM54.1219 170.999L12.1968 164.359L5.55654 122.433L47.4816 129.074L54.1219 170.999ZM99.0101 178.108L57.085 171.468L50.4447 129.543L92.3699 136.183L99.0101 178.108ZM143.898 185.218L101.973 178.578L95.3329 136.653L137.258 143.293L143.898 185.218ZM188.787 192.328L146.861 185.687L140.221 143.762L182.146 150.402L188.787 192.328ZM233.675 199.437L191.75 192.797L185.109 150.872L227.034 157.512L233.675 199.437ZM278.563 206.547L236.638 199.907L229.998 157.981L271.923 164.622L278.563 206.547ZM271.453 161.659L264.813 119.733L222.888 113.093L229.528 155.018L271.453 161.659ZM226.565 154.549L219.925 112.624L178 105.984L184.64 147.909L226.565 154.549ZM181.677 147.439L175.037 105.514L133.112 98.874L139.752 140.799L181.677 147.439ZM136.789 140.33L130.148 98.4047L88.2233 91.7644L94.8636 133.69L136.789 140.33ZM91.9006 133.22L85.2603 91.2951L43.3351 84.6548L49.9754 126.58L91.9006 133.22ZM47.0123 126.111L40.372 84.1855L-1.55306 77.5452L5.08723 119.47L47.0123 126.111Z" fill="white"/>
</g>
</g>
<defs>
<filter id="filter0_f_1_497" x="-381" y="260" width="842" height="842" filterUnits="userSpaceOnUse" color-interpolation-filters="sRGB">
<feFlood flood-opacity="0" result="BackgroundImageFix"/>
<feBlend mode="normal" in="SourceGraphic" in2="BackgroundImageFix" result="shape"/>
<feGaussianBlur stdDeviation="150" result="effect1_foregroundBlur_1_497"/>
</filter>
<filter id="filter1_f_1_497" x="-91" y="-316" width="842" height="842" filterUnits="userSpaceOnUse" color-interpolation-filters="sRGB">
<feFlood flood-opacity="0" result="BackgroundImageFix"/>
<feBlend mode="normal" in="SourceGraphic" in2="BackgroundImageFix" result="shape"/>
<feGaussianBlur stdDeviation="150" result="effect1_foregroundBlur_1_497"/>
</filter>
<filter id="filter2_f_1_497" x="-141.724" y="7.38" width="527.609" height="486.173" filterUnits="userSpaceOnUse" color-interpolation-filters="sRGB">
<feFlood flood-opacity="0" result="BackgroundImageFix"/>
<feBlend mode="normal" in="SourceGraphic" in2="BackgroundImageFix" result="shape"/>
<feGaussianBlur stdDeviation="10" result="effect1_foregroundBlur_1_497"/>
</filter>
<clipPath id="clip0_1_497">
<rect width="375" height="812" fill="white"/>
</clipPath>
</defs>
</svg>
