<svg width="26" height="27" viewBox="0 0 26 27" fill="none" xmlns="http://www.w3.org/2000/svg">
<mask id="mask0_81_778" style="mask-type:alpha" maskUnits="userSpaceOnUse" x="0" y="0" width="26" height="27">
<circle cx="13" cy="13.5" r="13" fill="#D9D9D9"/>
</mask>
<g mask="url(#mask0_81_778)">
<path d="M32.0779 0.5H1.01323C-0.416479 0.5 -1.57549 1.66406 -1.57549 3.1V23.9C-1.57549 25.3359 -0.416479 26.5 1.01323 26.5H32.0779C33.5076 26.5 34.6666 25.3359 34.6666 23.9V3.1C34.6666 1.66406 33.5076 0.5 32.0779 0.5Z" fill="black"/>
<path d="M34.6664 0.5H-1.57581V26.5H34.6664V0.5Z" fill="url(#paint0_linear_81_778)"/>
<path fill-rule="evenodd" clip-rule="evenodd" d="M-1.57581 0.5H34.6664V2.23333H-1.57581V0.5ZM-1.57581 3.96667H34.6664V5.7H-1.57581V3.96667ZM-1.57581 7.43333H34.6664V9.16667H-1.57581V7.43333ZM-1.57581 10.9H34.6664V12.6333H-1.57581V10.9ZM-1.57581 14.3667H34.6664V16.1H-1.57581V14.3667ZM-1.57581 17.8333H34.6664V19.5667H-1.57581V17.8333ZM-1.57581 21.3H34.6664V23.0333H-1.57581V21.3ZM-1.57581 24.7667H34.6664V26.5H-1.57581V24.7667Z" fill="url(#paint1_linear_81_778)"/>
<path d="M13.9566 0.5H-1.57581V12.6333L13.9566 12.6333V0.5Z" fill="#0202CE"/>
<path fill-rule="evenodd" clip-rule="evenodd" d="M1.01313 3.96666C0.536558 3.96666 0.150217 3.57863 0.150217 3.09999C0.150217 2.62135 0.536558 2.23333 1.01313 2.23333C1.4897 2.23333 1.87604 2.62135 1.87604 3.09999C1.87604 3.57863 1.4897 3.96666 1.01313 3.96666ZM4.46476 3.96666C3.98819 3.96666 3.60185 3.57863 3.60185 3.09999C3.60185 2.62135 3.98819 2.23333 4.46476 2.23333C4.94132 2.23333 5.32766 2.62135 5.32766 3.09999C5.32766 3.57863 4.94132 3.96666 4.46476 3.96666ZM7.91638 3.96666C7.43981 3.96666 7.05347 3.57863 7.05347 3.09999C7.05347 2.62135 7.43981 2.23333 7.91638 2.23333C8.39295 2.23333 8.77929 2.62135 8.77929 3.09999C8.77929 3.57863 8.39295 3.96666 7.91638 3.96666ZM11.368 3.96666C10.8914 3.96666 10.5051 3.57863 10.5051 3.09999C10.5051 2.62135 10.8914 2.23333 11.368 2.23333C11.8446 2.23333 12.2309 2.62135 12.2309 3.09999C12.2309 3.57863 11.8446 3.96666 11.368 3.96666ZM2.73894 5.69999C2.26237 5.69999 1.87604 5.31198 1.87604 4.83333C1.87604 4.35468 2.26237 3.96666 2.73894 3.96666C3.21551 3.96666 3.60185 4.35468 3.60185 4.83333C3.60185 5.31198 3.21551 5.69999 2.73894 5.69999ZM6.19057 5.69999C5.714 5.69999 5.32766 5.31198 5.32766 4.83333C5.32766 4.35468 5.714 3.96666 6.19057 3.96666C6.66714 3.96666 7.05347 4.35468 7.05347 4.83333C7.05347 5.31198 6.66714 5.69999 6.19057 5.69999ZM9.64219 5.69999C9.16564 5.69999 8.77929 5.31198 8.77929 4.83333C8.77929 4.35468 9.16564 3.96666 9.64219 3.96666C10.1188 3.96666 10.5051 4.35468 10.5051 4.83333C10.5051 5.31198 10.1188 5.69999 9.64219 5.69999ZM11.368 7.43333C10.8914 7.43333 10.5051 7.0453 10.5051 6.56666C10.5051 6.08801 10.8914 5.69999 11.368 5.69999C11.8446 5.69999 12.2309 6.08801 12.2309 6.56666C12.2309 7.0453 11.8446 7.43333 11.368 7.43333ZM7.91638 7.43333C7.43981 7.43333 7.05347 7.0453 7.05347 6.56666C7.05347 6.08801 7.43981 5.69999 7.91638 5.69999C8.39295 5.69999 8.77929 6.08801 8.77929 6.56666C8.77929 7.0453 8.39295 7.43333 7.91638 7.43333ZM4.46476 7.43333C3.98819 7.43333 3.60185 7.0453 3.60185 6.56666C3.60185 6.08801 3.98819 5.69999 4.46476 5.69999C4.94132 5.69999 5.32766 6.08801 5.32766 6.56666C5.32766 7.0453 4.94132 7.43333 4.46476 7.43333ZM1.01313 7.43333C0.536558 7.43333 0.150217 7.0453 0.150217 6.56666C0.150217 6.08801 0.536558 5.69999 1.01313 5.69999C1.4897 5.69999 1.87604 6.08801 1.87604 6.56666C1.87604 7.0453 1.4897 7.43333 1.01313 7.43333ZM2.73894 9.16666C2.26237 9.16666 1.87604 8.77863 1.87604 8.29999C1.87604 7.82134 2.26237 7.43333 2.73894 7.43333C3.21551 7.43333 3.60185 7.82134 3.60185 8.29999C3.60185 8.77863 3.21551 9.16666 2.73894 9.16666ZM6.19057 9.16666C5.714 9.16666 5.32766 8.77863 5.32766 8.29999C5.32766 7.82134 5.714 7.43333 6.19057 7.43333C6.66714 7.43333 7.05347 7.82134 7.05347 8.29999C7.05347 8.77863 6.66714 9.16666 6.19057 9.16666ZM9.64219 9.16666C9.16564 9.16666 8.77929 8.77863 8.77929 8.29999C8.77929 7.82134 9.16564 7.43333 9.64219 7.43333C10.1188 7.43333 10.5051 7.82134 10.5051 8.29999C10.5051 8.77863 10.1188 9.16666 9.64219 9.16666ZM11.368 10.9C10.8914 10.9 10.5051 10.512 10.5051 10.0333C10.5051 9.55468 10.8914 9.16666 11.368 9.16666C11.8446 9.16666 12.2309 9.55468 12.2309 10.0333C12.2309 10.512 11.8446 10.9 11.368 10.9ZM7.91638 10.9C7.43981 10.9 7.05347 10.512 7.05347 10.0333C7.05347 9.55468 7.43981 9.16666 7.91638 9.16666C8.39295 9.16666 8.77929 9.55468 8.77929 10.0333C8.77929 10.512 8.39295 10.9 7.91638 10.9ZM4.46476 10.9C3.98819 10.9 3.60185 10.512 3.60185 10.0333C3.60185 9.55468 3.98819 9.16666 4.46476 9.16666C4.94132 9.16666 5.32766 9.55468 5.32766 10.0333C5.32766 10.512 4.94132 10.9 4.46476 10.9ZM1.01313 10.9C0.536558 10.9 0.150217 10.512 0.150217 10.0333C0.150217 9.55468 0.536558 9.16666 1.01313 9.16666C1.4897 9.16666 1.87604 9.55468 1.87604 10.0333C1.87604 10.512 1.4897 10.9 1.01313 10.9Z" fill="url(#paint2_linear_81_778)"/>
</g>
<defs>
<linearGradient id="paint0_linear_81_778" x1="16.5454" y1="0.5" x2="16.5454" y2="26.5" gradientUnits="userSpaceOnUse">
<stop stop-color="white"/>
<stop offset="1" stop-color="#F0F0F0"/>
</linearGradient>
<linearGradient id="paint1_linear_81_778" x1="16.5454" y1="0.5" x2="16.5454" y2="26.5" gradientUnits="userSpaceOnUse">
<stop stop-color="#D02F44"/>
<stop offset="1" stop-color="#B12537"/>
</linearGradient>
<linearGradient id="paint2_linear_81_778" x1="6.19057" y1="2.23333" x2="6.19057" y2="10.9" gradientUnits="userSpaceOnUse">
<stop stop-color="white"/>
<stop offset="1" stop-color="#F0F0F0"/>
</linearGradient>
</defs>
</svg>
